<svg xmlns="http://www.w3.org/2000/svg" xmlns:xlink="http://www.w3.org/1999/xlink" width="320" height="154" viewBox="0 0 320 154">
  <defs>
    <clipPath id="clip-path">
      <rect id="Rect치ngulo_363" data-name="Rect치ngulo 363" width="320" height="154" fill="#ce311e"/>
    </clipPath>
    <linearGradient id="linear-gradient" x1="0.28" y1="0.547" x2="0.115" y2="0.649" gradientUnits="objectBoundingBox">
      <stop offset="0" stop-color="#d6402d" stop-opacity="0"/>
      <stop offset="1" stop-color="#d63b29"/>
    </linearGradient>
  </defs>
  <g id="BG" clip-path="url(#clip-path)">
    <rect id="Rect치ngulo_353" data-name="Rect치ngulo 353" width="320" height="154" fill="#ce311e"/>
    <path id="Trazado_12" data-name="Trazado 12" d="M236.058,47.735c-146.4.654-204.17,68.693-225.175,107.289-.321,3.023-2.105,5.8-3.248,8.6a86.652,86.652,0,0,0-6.584,21.253c-1.323,7.569-.9,15.2-1.044,22.81a34.532,34.532,0,0,0,1.181,9.82c2.046,7.512,3.989,15.109,8.608,21.564,9.946,14.357,25.317,24.279,41.716,29.8a239.728,239.728,0,0,0,60.431,10.521c18.765,1.15,37.586-.827,56.345-.926,7.27-2.522,14.479.774,21.724.212,32.243,5.833,59.671,24.107,88.9,38.2A31.509,31.509,0,0,1,284,320c9.127,7.138,19.515,11.994,30.175,16.2a194.512,194.512,0,0,0,33.907,9.513c9.3,1.832,18.684,2.295,28.007,3.538,8.107,1.082,16.3-.23,24.328-1.139,25.916-3.244,51.275-13.951,70.287-31.993a103.784,103.784,0,0,0,18.641-22.5c14.2-22.311,21.329-45.53,20.744-73.186.557-7.906-.834-17.138-2.609-26.448-53.864-80.854-148.267-146.8-271.418-146.244" transform="translate(160 -191.693)" fill="url(#linear-gradient)"/>
    <path id="Trazado_5003" data-name="Trazado 5003" d="M236.058,47.735c-146.4.654-204.17,68.693-225.175,107.289-.321,3.023-2.105,5.8-3.248,8.6a86.652,86.652,0,0,0-6.584,21.253c-1.323,7.569-.9,15.2-1.044,22.81a34.532,34.532,0,0,0,1.181,9.82c2.046,7.512,3.989,15.109,8.608,21.564,9.946,14.357,25.317,24.279,41.716,29.8a239.728,239.728,0,0,0,60.431,10.521c18.765,1.15,37.586-.827,56.345-.926,7.27-2.522,14.479.774,21.724.212,32.243,5.833,59.671,24.107,88.9,38.2A31.509,31.509,0,0,1,284,320c9.127,7.138,19.515,11.994,30.175,16.2a194.512,194.512,0,0,0,33.907,9.513c9.3,1.832,18.684,2.295,28.007,3.538,8.107,1.082,16.3-.23,24.328-1.139,25.916-3.244,51.275-13.951,70.287-31.993a103.784,103.784,0,0,0,18.641-22.5c14.2-22.311,21.329-45.53,20.744-73.186.557-7.906-.834-17.138-2.609-26.448-53.864-80.854-148.267-146.8-271.418-146.244" transform="translate(-274.105 29.268)" fill="none" stroke="#d6402d" stroke-width="2"/>
  </g>
</svg>
