<svg xmlns="http://www.w3.org/2000/svg" xmlns:xlink="http://www.w3.org/1999/xlink" width="1513" height="942" viewBox="0 0 1513 942">
  <defs>
    <clipPath id="clip-path">
      <rect id="Rect치ngulo_400" data-name="Rect치ngulo 400" width="1513" height="942" fill="#ce311e"/>
    </clipPath>
    <linearGradient id="linear-gradient" x1="0.28" y1="0.547" x2="0.115" y2="0.649" gradientUnits="objectBoundingBox">
      <stop offset="0" stop-color="#fff" stop-opacity="0"/>
      <stop offset="1" stop-color="#fff"/>
    </linearGradient>
  </defs>
  <g id="BG" clip-path="url(#clip-path)">
    <rect id="Rect치ngulo_399" data-name="Rect치ngulo 399" width="1513" height="942" fill="#f5f5f5"/>
    <path id="Trazado_5025" data-name="Trazado 5025" d="M441.4,47.74C167.643,49.322,59.627,213.916,20.35,307.285c-.6,7.313-3.936,14.038-6.073,20.8A256.585,256.585,0,0,0,1.965,379.5C-.508,397.806.29,416.256.013,434.675a106.923,106.923,0,0,0,2.208,23.756c3.826,18.172,7.459,36.551,16.1,52.166a161.583,161.583,0,0,0,78,72.078,357.716,357.716,0,0,0,113,25.451c35.088,2.782,70.282-2,105.359-2.24,13.594-6.1,27.074,1.872,40.621.513,60.291,14.111,111.578,58.318,166.237,92.42a58.757,58.757,0,0,1,9.5,7.562c17.066,17.268,36.491,29.015,56.424,39.18,20.47,10.441,41.714,17.48,63.4,23.013,17.383,4.432,34.937,5.552,52.37,8.559,15.159,2.617,30.472-.557,45.491-2.756,48.46-7.848,95.878-33.749,131.429-77.395a248.1,248.1,0,0,0,34.857-54.435C941.567,588.575,954.9,532.405,953.8,465.5c1.042-19.126-1.559-41.459-4.878-63.981C848.2,205.926,671.681,46.407,441.4,47.74" transform="translate(1212.333 -202.866)" fill="url(#linear-gradient)"/>
    <path id="Trazado_5027" data-name="Trazado 5027" d="M1137.47,115.487C417.838,15.672,172.738,380.489,91.554,595.77c.154,17.8-7.027,33.114-11.047,48.966q-17.125,57.535-20.2,122.074c-2.169,44.2,4.3,89.984,7.937,135.284a272.51,272.51,0,0,0,11.435,59.4c14.367,46.246,28.276,92.926,54.691,134.692,57.141,92.661,138.421,162.719,222.231,207.23,99.788,50.288,202.188,85.563,303.225,105.551,92.944,20.151,184.372,21.695,276.571,34.394,34.308-9.889,71.65,14.873,106.959,16.654,161.912,57.625,307.273,186.03,459.108,290.8a216.29,216.29,0,0,1,26.785,22.241c48.976,49.032,102.847,85.349,157.68,117.959,56.31,33.492,113.851,58.894,172.2,80.749,46.767,17.51,93.2,26.922,139.764,40.939,40.49,12.2,80.011,10.172,118.991,10.442,125.594-.985,244.173-46.87,327.334-140.992A433.5,433.5,0,0,0,2524,1761.17c57.054-122.988,78.8-256.4,60.078-421.737-1.791-46.752-13.923-102.791-27.987-159.567C2244.86,659.548,1742.8,199.444,1137.47,115.487" transform="matrix(-0.966, -0.259, 0.259, -0.966, 465.042, 1838.701)" fill="url(#linear-gradient)"/>
    <path id="Trazado_5026" data-name="Trazado 5026" d="M1133.479,108.326c-716.145-93.47-962.24,275.165-1044.271,492.1.056,17.872-7.179,33.318-11.27,49.273q-17.37,57.935-20.786,122.771c-2.4,44.4,3.791,90.318,7.164,135.772a273.429,273.429,0,0,0,11.064,59.536c14.055,46.3,27.652,93.047,53.73,134.737,56.4,92.51,136.964,162.094,220.188,206,99.105,49.56,200.893,84.019,301.408,103.141,92.454,19.362,183.5,20.053,275.253,31.939,34.222-10.253,71.276,14.261,106.431,15.718,160.935,56.344,305,183.917,455.64,287.7a211.127,211.127,0,0,1,26.553,22.082c48.508,48.776,101.959,84.737,156.39,116.968,55.9,33.1,113.063,58.069,171.058,79.467,46.48,17.144,92.674,26.158,138.969,39.8,40.258,11.866,79.629,9.463,118.448,9.367,125.087-2.17,243.432-49.359,326.768-144.653a444.515,444.515,0,0,0,79.121-122.224c57.494-124.035,79.885-258.207,62.142-424.054-1.528-46.929-13.3-103.087-27-159.967-307.113-519.556-804.6-976.856-1407-1055.475" transform="translate(-884.14 -386.715) rotate(14)" fill="none" stroke="#fff" stroke-width="2"/>
  </g>
</svg>
