<svg id="Grupo_24" data-name="Grupo 24" xmlns="http://www.w3.org/2000/svg" width="127.031" height="26.674" viewBox="0 0 127.031 26.674">
  <path id="path22" d="M0-82.648H3.563v-5.847a7.235,7.235,0,0,1,.176-1.619,3.571,3.571,0,0,1,.59-1.33,2.867,2.867,0,0,1,1.092-.891,3.8,3.8,0,0,1,1.656-.326,6.342,6.342,0,0,1,.678.038q.351.038.6.088v-3.312a2.447,2.447,0,0,0-.778-.125,4.291,4.291,0,0,0-1.292.2,4.728,4.728,0,0,0-1.192.564,4.448,4.448,0,0,0-.978.878,4.383,4.383,0,0,0-.678,1.117h-.05v-2.409H0Zm20.872-5.621a9.158,9.158,0,0,0-.251-2.886,7.065,7.065,0,0,0-1.142-2.459,5.76,5.76,0,0,0-2.02-1.719,6.17,6.17,0,0,0-2.886-.64,6.72,6.72,0,0,0-2.7.527A6.378,6.378,0,0,0,9.78-94a6.36,6.36,0,0,0-1.355,2.171,7.568,7.568,0,0,0-.477,2.71,7.9,7.9,0,0,0,.464,2.76A6.269,6.269,0,0,0,9.73-84.2,5.873,5.873,0,0,0,11.813-82.8a7.248,7.248,0,0,0,2.76.5,6.67,6.67,0,0,0,3.764-1.029,6.073,6.073,0,0,0,2.309-3.338H17.509a2.237,2.237,0,0,1-.954,1.142,3.176,3.176,0,0,1-1.857.539,3.154,3.154,0,0,1-2.309-.791,3.614,3.614,0,0,1-.878-2.5Zm-9.36-2.258a4.073,4.073,0,0,1,.163-.853,2.62,2.62,0,0,1,.477-.9,2.7,2.7,0,0,1,.9-.715,3.1,3.1,0,0,1,1.418-.289,2.5,2.5,0,0,1,1.945.7,4.118,4.118,0,0,1,.891,2.058Zm10.382,7.879h3.564V-95.621H21.894Zm3.564-17.917H21.894v2.936h3.564Zm1.625,17.917h3.563v-6.8A4.814,4.814,0,0,1,31.3-92.3a2.469,2.469,0,0,1,2.108-.866,1.949,1.949,0,0,1,1.769.79,4.455,4.455,0,0,1,.514,2.4v7.328h3.563v-7.98a10.468,10.468,0,0,0-.213-2.2A4.181,4.181,0,0,0,38.3-94.5a3.482,3.482,0,0,0-1.443-1.079,6.049,6.049,0,0,0-2.346-.389,4.98,4.98,0,0,0-2.208.527,4.212,4.212,0,0,0-1.757,1.631H30.47v-1.807H27.082Zm22.955,0h3.388v-17.917H49.861v6.525h-.05a3.828,3.828,0,0,0-1.644-1.443,5.1,5.1,0,0,0-2.2-.489,5.338,5.338,0,0,0-2.51.564,5.381,5.381,0,0,0-1.794,1.493,6.557,6.557,0,0,0-1.079,2.146,8.765,8.765,0,0,0-.364,2.522,9.332,9.332,0,0,0,.364,2.61,6.954,6.954,0,0,0,1.079,2.221,5.29,5.29,0,0,0,1.807,1.543,5.427,5.427,0,0,0,2.572.577,5.366,5.366,0,0,0,2.284-.477A3.737,3.737,0,0,0,49.987-84.3h.05Zm-.05-6.524a7.9,7.9,0,0,1-.151,1.556,4.225,4.225,0,0,1-.5,1.343,2.671,2.671,0,0,1-.941.941,2.825,2.825,0,0,1-1.468.351,2.646,2.646,0,0,1-1.418-.364,3.131,3.131,0,0,1-.979-.954,4.121,4.121,0,0,1-.565-1.342,6.607,6.607,0,0,1-.176-1.506,7.149,7.149,0,0,1,.163-1.543,4.106,4.106,0,0,1,.527-1.317,2.776,2.776,0,0,1,.966-.929,2.9,2.9,0,0,1,1.48-.351,2.775,2.775,0,0,1,1.443.351,2.853,2.853,0,0,1,.954.916,3.777,3.777,0,0,1,.514,1.317,7.779,7.779,0,0,1,.151,1.531m17.108-6.449H63.531v6.8a4.812,4.812,0,0,1-.653,2.848,2.469,2.469,0,0,1-2.108.866A1.949,1.949,0,0,1,59-85.9a4.457,4.457,0,0,1-.514-2.4v-7.327H54.924v7.98a10.451,10.451,0,0,0,.213,2.2,4.173,4.173,0,0,0,.74,1.681,3.48,3.48,0,0,0,1.443,1.079,6.054,6.054,0,0,0,2.346.389,4.977,4.977,0,0,0,2.208-.527,4.211,4.211,0,0,0,1.756-1.631h.075v1.807h3.388Zm.9,8.758a4.392,4.392,0,0,0,.59,2.158,4.388,4.388,0,0,0,1.38,1.418,5.668,5.668,0,0,0,1.92.765,10.746,10.746,0,0,0,2.208.226,10.446,10.446,0,0,0,2.171-.226,5.691,5.691,0,0,0,1.895-.753A4.118,4.118,0,0,0,79.5-84.668a4.137,4.137,0,0,0,.515-2.146,3.018,3.018,0,0,0-.352-1.518,3.208,3.208,0,0,0-.928-1.029,4.989,4.989,0,0,0-1.317-.665,15.063,15.063,0,0,0-1.518-.427q-.753-.176-1.48-.326a11.445,11.445,0,0,1-1.293-.339,2.708,2.708,0,0,1-.916-.489.977.977,0,0,1-.352-.778.962.962,0,0,1,.2-.64,1.319,1.319,0,0,1,.489-.364,2.175,2.175,0,0,1,.64-.163,6.134,6.134,0,0,1,.653-.038,3.557,3.557,0,0,1,1.656.364,1.558,1.558,0,0,1,.778,1.393H79.66a4.255,4.255,0,0,0-.615-2,4.062,4.062,0,0,0-1.292-1.267,5.41,5.41,0,0,0-1.769-.678,10.27,10.27,0,0,0-2.045-.2,11.144,11.144,0,0,0-2.058.188,5.672,5.672,0,0,0-1.807.652,3.577,3.577,0,0,0-1.292,1.28,3.916,3.916,0,0,0-.49,2.045,2.773,2.773,0,0,0,.352,1.443,3.048,3.048,0,0,0,.928.979,5.187,5.187,0,0,0,1.317.627q.74.238,1.518.414.954.2,1.706.389a8.069,8.069,0,0,1,1.267.414,2.441,2.441,0,0,1,.79.514.964.964,0,0,1,.276.69,1.318,1.318,0,0,1-.226.79,1.707,1.707,0,0,1-.565.5,2.689,2.689,0,0,1-.753.276,3.818,3.818,0,0,1-.79.088,4.065,4.065,0,0,1-1.016-.125,2.635,2.635,0,0,1-.866-.389,2.082,2.082,0,0,1-.615-.678,1.955,1.955,0,0,1-.238-.991ZM85.426-99.511H81.862v3.89H79.7v2.384h2.158v7.654A3.316,3.316,0,0,0,82.188-84a2.415,2.415,0,0,0,.891.941,3.55,3.55,0,0,0,1.3.452,10.4,10.4,0,0,0,1.568.113q.527,0,1.079-.025a8.473,8.473,0,0,0,1-.1v-2.786a5.634,5.634,0,0,1-1.1.1,1.744,1.744,0,0,1-1.2-.3,1.743,1.743,0,0,1-.3-1.2v-6.424h2.61v-2.384h-2.61Zm3.13,16.863h3.563v-5.847a7.208,7.208,0,0,1,.176-1.619,3.57,3.57,0,0,1,.59-1.33,2.866,2.866,0,0,1,1.092-.891,3.793,3.793,0,0,1,1.656-.326,6.339,6.339,0,0,1,.677.038q.351.038.6.088v-3.312a2.446,2.446,0,0,0-.778-.125,4.293,4.293,0,0,0-1.293.2,4.723,4.723,0,0,0-1.192.564,4.442,4.442,0,0,0-.978.878,4.377,4.377,0,0,0-.678,1.117h-.05v-2.409H88.556Zm8.676,0H100.8V-95.621H97.232Zm3.563-17.917H97.232v2.936H100.8Zm9.7,12.9a6.808,6.808,0,0,1-.063.8,2.69,2.69,0,0,1-.339.991,2.349,2.349,0,0,1-.853.84,3.147,3.147,0,0,1-1.631.351,4.468,4.468,0,0,1-.828-.075,2.017,2.017,0,0,1-.7-.263,1.375,1.375,0,0,1-.477-.5,1.661,1.661,0,0,1-.176-.816,1.752,1.752,0,0,1,.176-.816,1.575,1.575,0,0,1,.464-.552,2.368,2.368,0,0,1,.665-.339,5.628,5.628,0,0,1,.8-.2q.4-.075.841-.125t.828-.125a5.749,5.749,0,0,0,.728-.188A1.593,1.593,0,0,0,110.5-89Zm-4.668-3.965a2,2,0,0,1,.715-1.506,2.716,2.716,0,0,1,1.644-.452,5.961,5.961,0,0,1,.891.063,1.974,1.974,0,0,1,.728.251,1.384,1.384,0,0,1,.5.527,1.888,1.888,0,0,1,.188.916,1.025,1.025,0,0,1-.351.841,2.4,2.4,0,0,1-.941.439,9.173,9.173,0,0,1-1.343.226q-.753.075-1.581.2a14.572,14.572,0,0,0-1.618.339,4.652,4.652,0,0,0-1.418.64,3.1,3.1,0,0,0-1,1.142,3.889,3.889,0,0,0-.377,1.819,4.077,4.077,0,0,0,.339,1.732,3.272,3.272,0,0,0,.941,1.2,4.136,4.136,0,0,0,1.405.715,6.06,6.06,0,0,0,1.732.238,7.8,7.8,0,0,0,2.359-.364,4.75,4.75,0,0,0,2.008-1.242,5.341,5.341,0,0,0,.088.64,5.144,5.144,0,0,0,.163.615h3.614a3.038,3.038,0,0,1-.351-1.2,13.539,13.539,0,0,1-.1-1.681v-6.75a3.133,3.133,0,0,0-.527-1.882,3.562,3.562,0,0,0-1.355-1.129,6.061,6.061,0,0,0-1.832-.539,14.558,14.558,0,0,0-1.983-.138,10.842,10.842,0,0,0-2.158.213,6.129,6.129,0,0,0-1.907.715,4.276,4.276,0,0,0-1.405,1.33,4.14,4.14,0,0,0-.627,2.083Zm9.178,4.768a4.39,4.39,0,0,0,.59,2.158,4.386,4.386,0,0,0,1.38,1.418,5.666,5.666,0,0,0,1.92.765,10.747,10.747,0,0,0,2.208.226,10.446,10.446,0,0,0,2.171-.226,5.692,5.692,0,0,0,1.895-.753,4.12,4.12,0,0,0,1.342-1.393,4.137,4.137,0,0,0,.514-2.146,3.021,3.021,0,0,0-.351-1.518,3.215,3.215,0,0,0-.929-1.029,4.993,4.993,0,0,0-1.317-.665,15.065,15.065,0,0,0-1.518-.427q-.753-.176-1.48-.326a11.446,11.446,0,0,1-1.293-.339,2.708,2.708,0,0,1-.916-.489.976.976,0,0,1-.352-.778.961.961,0,0,1,.2-.64,1.318,1.318,0,0,1,.489-.364,2.177,2.177,0,0,1,.64-.163,6.126,6.126,0,0,1,.652-.038,3.557,3.557,0,0,1,1.656.364,1.559,1.559,0,0,1,.778,1.393h3.388a4.263,4.263,0,0,0-.615-2,4.066,4.066,0,0,0-1.293-1.267A5.409,5.409,0,0,0,123-95.772a10.27,10.27,0,0,0-2.045-.2,11.144,11.144,0,0,0-2.058.188,5.666,5.666,0,0,0-1.807.652,3.574,3.574,0,0,0-1.292,1.28,3.916,3.916,0,0,0-.49,2.045,2.771,2.771,0,0,0,.352,1.443,3.048,3.048,0,0,0,.928.979,5.188,5.188,0,0,0,1.317.627q.74.238,1.518.414.954.2,1.707.389a8.078,8.078,0,0,1,1.267.414,2.443,2.443,0,0,1,.79.514.964.964,0,0,1,.276.69,1.318,1.318,0,0,1-.226.79,1.712,1.712,0,0,1-.565.5,2.692,2.692,0,0,1-.753.276,3.817,3.817,0,0,1-.79.088,4.065,4.065,0,0,1-1.016-.125,2.635,2.635,0,0,1-.866-.389,2.083,2.083,0,0,1-.615-.678,1.955,1.955,0,0,1-.239-.991Z" transform="translate(0 100.565)" fill="#fff"/>
  <path id="path26" d="M-2.223-17.013a2.557,2.557,0,0,0,.093.7,1.706,1.706,0,0,0,.269.563,1.269,1.269,0,0,0,.442.374,1.3,1.3,0,0,0,.6.137,1.435,1.435,0,0,0,.563-.108,1.292,1.292,0,0,0,.45-.317,1.483,1.483,0,0,0,.3-.51,2.05,2.05,0,0,0,.108-.7A2.723,2.723,0,0,0,.541-17.6a1.757,1.757,0,0,0-.257-.6,1.273,1.273,0,0,0-.454-.406,1.35,1.35,0,0,0-.647-.149,1.223,1.223,0,0,0-.59.141,1.355,1.355,0,0,0-.442.378,1.736,1.736,0,0,0-.277.554,2.3,2.3,0,0,0-.1.671m0,2.1h-.482V-20.7h.482v2.29a1.492,1.492,0,0,1,.639-.582,1.921,1.921,0,0,1,.848-.2,1.771,1.771,0,0,1,.824.181,1.691,1.691,0,0,1,.578.482,2.073,2.073,0,0,1,.342.7,3.094,3.094,0,0,1,.112.836,3.409,3.409,0,0,1-.1.86,1.887,1.887,0,0,1-.334.695,1.6,1.6,0,0,1-.583.462,1.982,1.982,0,0,1-.86.169,1.57,1.57,0,0,1-.41-.056,1.938,1.938,0,0,1-.406-.161,1.64,1.64,0,0,1-.362-.261,1.314,1.314,0,0,1-.269-.366h-.016Zm7.281-4.162H5.54v4.162H5.058v-.578q-.1.112-.217.233a1.656,1.656,0,0,1-.277.221,1.6,1.6,0,0,1-.366.169,1.548,1.548,0,0,1-.482.068,1.832,1.832,0,0,1-.7-.117,1.146,1.146,0,0,1-.454-.325,1.287,1.287,0,0,1-.249-.486,2.272,2.272,0,0,1-.077-.607v-2.74H2.72v2.732a1.217,1.217,0,0,0,.249.824,1.038,1.038,0,0,0,.82.285,1.2,1.2,0,0,0,.535-.116,1.12,1.12,0,0,0,.4-.325,1.553,1.553,0,0,0,.249-.5,2.166,2.166,0,0,0,.088-.635Zm4.75,1.792a1.918,1.918,0,0,0-.084-.575,1.344,1.344,0,0,0-.249-.466,1.189,1.189,0,0,0-.414-.314,1.332,1.332,0,0,0-.57-.116,1.268,1.268,0,0,0-.567.12,1.3,1.3,0,0,0-.418.321,1.616,1.616,0,0,0-.277.466,2.169,2.169,0,0,0-.137.563Zm-2.716.4a2.259,2.259,0,0,0,.088.639,1.538,1.538,0,0,0,.261.522,1.262,1.262,0,0,0,.438.353,1.351,1.351,0,0,0,.611.133,1.331,1.331,0,0,0,.811-.249,1.2,1.2,0,0,0,.45-.707h.538a2.577,2.577,0,0,1-.233.55,1.7,1.7,0,0,1-.362.442,1.559,1.559,0,0,1-.514.293,2.083,2.083,0,0,1-.691.1,2.015,2.015,0,0,1-.86-.169,1.615,1.615,0,0,1-.595-.462,1.945,1.945,0,0,1-.346-.691,3.128,3.128,0,0,1-.113-.856,2.728,2.728,0,0,1,.133-.86,2.2,2.2,0,0,1,.378-.7,1.752,1.752,0,0,1,.6-.474,1.807,1.807,0,0,1,.8-.173,1.66,1.66,0,0,1,1.35.591,2.6,2.6,0,0,1,.482,1.716Zm4.742,1.969h-.482v-4.162h.482v.578a3.071,3.071,0,0,1,.6-.5,1.379,1.379,0,0,1,.743-.193,1.9,1.9,0,0,1,.715.133,1.224,1.224,0,0,1,.554.462,1.039,1.039,0,0,1,.181.462,4.194,4.194,0,0,1,.028.494v2.724h-.482v-2.716a1.24,1.24,0,0,0-.249-.844,1.057,1.057,0,0,0-.828-.281,1.178,1.178,0,0,0-.41.068,1.294,1.294,0,0,0-.333.181,1.214,1.214,0,0,0-.253.257,1.2,1.2,0,0,0-.161.305,1.531,1.531,0,0,0-.088.386q-.016.185-.016.4Zm6.8-2.186a2.362,2.362,0,0,1-.619.169q-.313.04-.627.064a1.768,1.768,0,0,0-.864.249.714.714,0,0,0-.309.635.686.686,0,0,0,.076.333.7.7,0,0,0,.2.233.847.847,0,0,0,.289.137,1.284,1.284,0,0,0,.334.044,2.189,2.189,0,0,0,.563-.072,1.523,1.523,0,0,0,.486-.221,1.13,1.13,0,0,0,.341-.378,1.09,1.09,0,0,0,.129-.542Zm-.811-.241q.136-.016.325-.048a1.227,1.227,0,0,0,.309-.088.256.256,0,0,0,.149-.189,1.185,1.185,0,0,0,.028-.245.821.821,0,0,0-.237-.606,1.107,1.107,0,0,0-.8-.237,2.215,2.215,0,0,0-.458.044,1,1,0,0,0-.366.153.839.839,0,0,0-.257.289,1.228,1.228,0,0,0-.133.454h-.49a1.487,1.487,0,0,1,.169-.631,1.277,1.277,0,0,1,.373-.426,1.551,1.551,0,0,1,.53-.241,2.587,2.587,0,0,1,.639-.076,2.459,2.459,0,0,1,.591.068,1.369,1.369,0,0,1,.482.217,1.007,1.007,0,0,1,.321.4,1.436,1.436,0,0,1,.117.611v2.266q0,.281.1.358t.406-.036v.377l-.165.048a.743.743,0,0,1-.213.032.973.973,0,0,1-.217-.024.373.373,0,0,1-.193-.076.473.473,0,0,1-.117-.145.6.6,0,0,1-.06-.185,1.351,1.351,0,0,1-.016-.213,2.1,2.1,0,0,1-.7.514,2.057,2.057,0,0,1-.852.177,1.913,1.913,0,0,1-.526-.072,1.275,1.275,0,0,1-.446-.225,1.116,1.116,0,0,1-.305-.373A1.15,1.15,0,0,1,15.7-16q0-1.061,1.454-1.254Zm2.926,1.125a1.224,1.224,0,0,0,.406.759,1.376,1.376,0,0,0,.84.221,1.456,1.456,0,0,0,.458-.064.923.923,0,0,0,.317-.173.743.743,0,0,0,.189-.245.669.669,0,0,0,.064-.289.533.533,0,0,0-.2-.454,1.488,1.488,0,0,0-.494-.233,6.316,6.316,0,0,0-.643-.145,3.152,3.152,0,0,1-.643-.181,1.289,1.289,0,0,1-.494-.345.934.934,0,0,1-.2-.635,1.084,1.084,0,0,1,.382-.856,1.59,1.59,0,0,1,1.08-.334,1.844,1.844,0,0,1,1.1.3,1.377,1.377,0,0,1,.51,1.008h-.49a.9.9,0,0,0-.366-.679,1.362,1.362,0,0,0-.759-.2,1.082,1.082,0,0,0-.7.2.637.637,0,0,0-.241.518.507.507,0,0,0,.2.43,1.611,1.611,0,0,0,.494.241q.3.092.643.165a3.152,3.152,0,0,1,.643.205,1.4,1.4,0,0,1,.494.358.921.921,0,0,1,.2.627,1.057,1.057,0,0,1-.129.526,1.119,1.119,0,0,1-.354.382,1.635,1.635,0,0,1-.534.229,2.821,2.821,0,0,1-.679.076,1.838,1.838,0,0,1-.655-.109,1.422,1.422,0,0,1-.486-.3,1.39,1.39,0,0,1-.313-.45,1.589,1.589,0,0,1-.129-.554Zm6.388,1.3h-.482v-4.162h.482v.627h.016a1.271,1.271,0,0,1,.53-.55,1.549,1.549,0,0,1,.755-.189,1.627,1.627,0,0,1,.49.064,1.105,1.105,0,0,1,.341.173.992.992,0,0,1,.233.253,1.719,1.719,0,0,1,.157.314,1.4,1.4,0,0,1,.558-.607,1.6,1.6,0,0,1,.8-.2,1.4,1.4,0,0,1,.679.141,1.021,1.021,0,0,1,.39.37,1.423,1.423,0,0,1,.181.526,4.148,4.148,0,0,1,.044.611v2.628h-.482v-2.877a1.175,1.175,0,0,0-.189-.707.823.823,0,0,0-.7-.257,1.175,1.175,0,0,0-.51.116,1.184,1.184,0,0,0-.43.358.942.942,0,0,0-.133.245,2.112,2.112,0,0,0-.084.293,2.411,2.411,0,0,0-.044.305q-.012.153-.012.281v2.242H29.24v-2.877a1.173,1.173,0,0,0-.189-.707.823.823,0,0,0-.7-.257,1.175,1.175,0,0,0-.51.116,1.185,1.185,0,0,0-.43.358.935.935,0,0,0-.133.245,2.081,2.081,0,0,0-.085.293,2.454,2.454,0,0,0-.044.305q-.012.153-.012.281ZM36.223-17.1a2.366,2.366,0,0,1-.619.169q-.314.04-.627.064a1.768,1.768,0,0,0-.864.249.714.714,0,0,0-.309.635.691.691,0,0,0,.076.333.707.707,0,0,0,.2.233.845.845,0,0,0,.289.137,1.284,1.284,0,0,0,.334.044,2.186,2.186,0,0,0,.562-.072,1.521,1.521,0,0,0,.486-.221,1.133,1.133,0,0,0,.342-.378,1.093,1.093,0,0,0,.129-.542Zm-.811-.241q.136-.016.325-.048a1.227,1.227,0,0,0,.309-.088.256.256,0,0,0,.149-.189,1.185,1.185,0,0,0,.028-.245.82.82,0,0,0-.237-.606,1.106,1.106,0,0,0-.8-.237,2.213,2.213,0,0,0-.458.044,1,1,0,0,0-.366.153.839.839,0,0,0-.257.289,1.228,1.228,0,0,0-.133.454h-.49a1.483,1.483,0,0,1,.169-.631,1.277,1.277,0,0,1,.373-.426,1.549,1.549,0,0,1,.53-.241,2.585,2.585,0,0,1,.639-.076,2.456,2.456,0,0,1,.591.068,1.364,1.364,0,0,1,.482.217,1.006,1.006,0,0,1,.322.4,1.436,1.436,0,0,1,.116.611v2.266q0,.281.1.358t.406-.036v.377l-.165.048a.74.74,0,0,1-.213.032.971.971,0,0,1-.217-.024.375.375,0,0,1-.193-.076.469.469,0,0,1-.116-.145.6.6,0,0,1-.06-.185,1.351,1.351,0,0,1-.016-.213,2.094,2.094,0,0,1-.7.514,2.056,2.056,0,0,1-.852.177,1.915,1.915,0,0,1-.526-.072,1.276,1.276,0,0,1-.446-.225,1.116,1.116,0,0,1-.305-.373A1.144,1.144,0,0,1,33.29-16q0-1.061,1.454-1.254Zm3.15,2.427H38.08v-4.162h.482v.779h.016a1.4,1.4,0,0,1,.518-.7,1.579,1.579,0,0,1,.84-.2v.522a1.407,1.407,0,0,0-.675.129,1.115,1.115,0,0,0-.422.37,1.467,1.467,0,0,0-.217.55,3.551,3.551,0,0,0-.06.663Zm5.064-2.853a1.4,1.4,0,0,0-.442-.727,1.2,1.2,0,0,0-.8-.261,1.251,1.251,0,0,0-.635.153,1.283,1.283,0,0,0-.434.406,1.827,1.827,0,0,0-.249.57,2.6,2.6,0,0,0-.08.639,2.719,2.719,0,0,0,.076.643,1.714,1.714,0,0,0,.245.563,1.261,1.261,0,0,0,.434.4,1.293,1.293,0,0,0,.643.149,1.231,1.231,0,0,0,.864-.3,1.383,1.383,0,0,0,.414-.82h.514a2.433,2.433,0,0,1-.205.631,1.668,1.668,0,0,1-.362.49,1.555,1.555,0,0,1-.526.317,2.013,2.013,0,0,1-.7.113,2.015,2.015,0,0,1-.86-.169,1.616,1.616,0,0,1-.595-.462,1.947,1.947,0,0,1-.345-.695,3.174,3.174,0,0,1-.113-.86,2.763,2.763,0,0,1,.125-.832,2.162,2.162,0,0,1,.366-.7,1.77,1.77,0,0,1,.6-.486,1.8,1.8,0,0,1,.824-.181,1.855,1.855,0,0,1,1.169.346,1.6,1.6,0,0,1,.558,1.077Zm4.332.667a2.365,2.365,0,0,1-.619.169q-.314.04-.627.064a1.769,1.769,0,0,0-.864.249.714.714,0,0,0-.309.635.689.689,0,0,0,.076.333.7.7,0,0,0,.2.233.845.845,0,0,0,.289.137,1.283,1.283,0,0,0,.334.044A2.189,2.189,0,0,0,47-15.309a1.522,1.522,0,0,0,.486-.221,1.131,1.131,0,0,0,.342-.378,1.09,1.09,0,0,0,.129-.542Zm-.812-.241q.137-.016.325-.048a1.223,1.223,0,0,0,.31-.088.256.256,0,0,0,.148-.189,1.187,1.187,0,0,0,.028-.245.821.821,0,0,0-.237-.606,1.106,1.106,0,0,0-.8-.237,2.219,2.219,0,0,0-.458.044,1,1,0,0,0-.366.153.843.843,0,0,0-.257.289,1.224,1.224,0,0,0-.132.454h-.49a1.49,1.49,0,0,1,.169-.631,1.283,1.283,0,0,1,.374-.426,1.55,1.55,0,0,1,.53-.241,2.581,2.581,0,0,1,.639-.076,2.461,2.461,0,0,1,.591.068,1.364,1.364,0,0,1,.482.217,1.007,1.007,0,0,1,.321.4,1.436,1.436,0,0,1,.117.611v2.266q0,.281.1.358t.406-.036v.377l-.165.048a.741.741,0,0,1-.213.032.968.968,0,0,1-.217-.024.374.374,0,0,1-.193-.076.466.466,0,0,1-.116-.145.591.591,0,0,1-.06-.185,1.35,1.35,0,0,1-.016-.213,2.088,2.088,0,0,1-.7.514,2.055,2.055,0,0,1-.852.177,1.916,1.916,0,0,1-.526-.072,1.276,1.276,0,0,1-.446-.225,1.119,1.119,0,0,1-.305-.373A1.147,1.147,0,0,1,45.025-16q0-1.061,1.455-1.254Zm2.926,1.125a1.224,1.224,0,0,0,.406.759,1.376,1.376,0,0,0,.84.221,1.457,1.457,0,0,0,.458-.064.925.925,0,0,0,.317-.173.746.746,0,0,0,.189-.245.672.672,0,0,0,.064-.289.532.532,0,0,0-.2-.454,1.489,1.489,0,0,0-.494-.233,6.358,6.358,0,0,0-.643-.145,3.143,3.143,0,0,1-.643-.181,1.285,1.285,0,0,1-.494-.345.933.933,0,0,1-.2-.635,1.085,1.085,0,0,1,.382-.856,1.591,1.591,0,0,1,1.081-.334,1.845,1.845,0,0,1,1.1.3,1.378,1.378,0,0,1,.51,1.008h-.49a.9.9,0,0,0-.366-.679,1.36,1.36,0,0,0-.759-.2,1.081,1.081,0,0,0-.7.2.636.636,0,0,0-.241.518.507.507,0,0,0,.2.43,1.607,1.607,0,0,0,.494.241q.3.092.643.165a3.153,3.153,0,0,1,.643.205,1.4,1.4,0,0,1,.494.358.921.921,0,0,1,.2.627,1.057,1.057,0,0,1-.129.526,1.116,1.116,0,0,1-.353.382,1.642,1.642,0,0,1-.534.229,2.825,2.825,0,0,1-.679.076,1.838,1.838,0,0,1-.655-.109,1.422,1.422,0,0,1-.486-.3,1.39,1.39,0,0,1-.313-.45,1.594,1.594,0,0,1-.129-.554Z" transform="translate(73.172 40.16)" fill="#fff"/>
  <path id="path28" d="M93.826-79.165h.482v5.785h-.482Zm4.525,3.6a2.366,2.366,0,0,1-.619.169q-.313.04-.627.064a1.768,1.768,0,0,0-.864.249.714.714,0,0,0-.31.635.69.69,0,0,0,.076.334.706.706,0,0,0,.2.233.853.853,0,0,0,.289.137,1.282,1.282,0,0,0,.333.044,2.2,2.2,0,0,0,.563-.072,1.518,1.518,0,0,0,.486-.221,1.129,1.129,0,0,0,.342-.378,1.093,1.093,0,0,0,.129-.542Zm-.812-.241q.137-.016.325-.048a1.229,1.229,0,0,0,.31-.088.256.256,0,0,0,.148-.189,1.186,1.186,0,0,0,.028-.245.821.821,0,0,0-.237-.606,1.106,1.106,0,0,0-.8-.237,2.217,2.217,0,0,0-.458.044,1,1,0,0,0-.366.153.841.841,0,0,0-.257.289,1.228,1.228,0,0,0-.133.454h-.49a1.487,1.487,0,0,1,.169-.631,1.28,1.28,0,0,1,.374-.426,1.552,1.552,0,0,1,.53-.241,2.585,2.585,0,0,1,.639-.076,2.457,2.457,0,0,1,.591.068,1.365,1.365,0,0,1,.482.217,1.007,1.007,0,0,1,.321.4,1.436,1.436,0,0,1,.116.611v2.266q0,.281.1.358t.406-.036v.377l-.165.048a.742.742,0,0,1-.213.032.957.957,0,0,1-.217-.024.37.37,0,0,1-.193-.076.47.47,0,0,1-.117-.145.593.593,0,0,1-.06-.185,1.353,1.353,0,0,1-.016-.213,2.092,2.092,0,0,1-.7.514,2.052,2.052,0,0,1-.852.177,1.906,1.906,0,0,1-.526-.072,1.275,1.275,0,0,1-.446-.225,1.114,1.114,0,0,1-.305-.374,1.143,1.143,0,0,1-.113-.526q0-1.061,1.455-1.254Zm7.738-.426a1.4,1.4,0,0,0-.442-.727,1.2,1.2,0,0,0-.8-.261,1.251,1.251,0,0,0-.635.153,1.283,1.283,0,0,0-.434.406,1.832,1.832,0,0,0-.249.57,2.6,2.6,0,0,0-.08.639,2.7,2.7,0,0,0,.076.643,1.716,1.716,0,0,0,.245.563,1.263,1.263,0,0,0,.434.4,1.3,1.3,0,0,0,.643.149,1.23,1.23,0,0,0,.864-.3,1.381,1.381,0,0,0,.414-.82h.514a2.416,2.416,0,0,1-.2.631,1.664,1.664,0,0,1-.362.49,1.559,1.559,0,0,1-.526.317,2.015,2.015,0,0,1-.7.113,2.017,2.017,0,0,1-.86-.169,1.617,1.617,0,0,1-.595-.462,1.947,1.947,0,0,1-.345-.695,3.184,3.184,0,0,1-.113-.86,2.765,2.765,0,0,1,.125-.832,2.163,2.163,0,0,1,.366-.7,1.771,1.771,0,0,1,.6-.486,1.8,1.8,0,0,1,.824-.181,1.855,1.855,0,0,1,1.169.346,1.6,1.6,0,0,1,.559,1.077Zm4.678.772a2.858,2.858,0,0,0-.08-.691,1.64,1.64,0,0,0-.249-.559,1.2,1.2,0,0,0-.434-.373,1.408,1.408,0,0,0-.651-.137,1.322,1.322,0,0,0-.647.148,1.266,1.266,0,0,0-.438.394,1.733,1.733,0,0,0-.249.562,2.666,2.666,0,0,0-.08.655,2.6,2.6,0,0,0,.092.711,1.668,1.668,0,0,0,.269.558,1.207,1.207,0,0,0,.442.362,1.383,1.383,0,0,0,.611.129,1.319,1.319,0,0,0,.647-.149,1.251,1.251,0,0,0,.438-.4,1.786,1.786,0,0,0,.249-.563,2.625,2.625,0,0,0,.08-.651m-1.414,2.194a2.171,2.171,0,0,1-.751-.145,1.689,1.689,0,0,1-.611-.41,1.973,1.973,0,0,1-.414-.683,2.737,2.737,0,0,1-.153-.956,2.931,2.931,0,0,1,.121-.856,2.022,2.022,0,0,1,.362-.7,1.716,1.716,0,0,1,.6-.47,1.94,1.94,0,0,1,.844-.173,1.958,1.958,0,0,1,.851.173,1.737,1.737,0,0,1,.6.466,1.928,1.928,0,0,1,.358.7,3.074,3.074,0,0,1,.117.86,2.781,2.781,0,0,1-.137.9,2.027,2.027,0,0,1-.39.691,1.718,1.718,0,0,1-.611.446,1.951,1.951,0,0,1-.792.157m3.319-.113h-.482v-4.162h.482v.627h.016a1.269,1.269,0,0,1,.53-.55,1.549,1.549,0,0,1,.755-.189,1.626,1.626,0,0,1,.49.064,1.111,1.111,0,0,1,.342.173,1,1,0,0,1,.233.253,1.711,1.711,0,0,1,.157.314,1.4,1.4,0,0,1,.558-.607,1.6,1.6,0,0,1,.8-.2,1.4,1.4,0,0,1,.679.141,1.018,1.018,0,0,1,.39.37,1.423,1.423,0,0,1,.181.526,4.115,4.115,0,0,1,.044.611v2.628h-.482v-2.877a1.173,1.173,0,0,0-.189-.707.821.821,0,0,0-.7-.257,1.173,1.173,0,0,0-.51.116,1.18,1.18,0,0,0-.43.358.937.937,0,0,0-.132.245,2.084,2.084,0,0,0-.085.293,2.41,2.41,0,0,0-.044.305c-.008.1-.012.2-.012.281v2.242h-.482v-2.877a1.174,1.174,0,0,0-.189-.707.822.822,0,0,0-.7-.257,1.174,1.174,0,0,0-.51.116,1.177,1.177,0,0,0-.43.358A.924.924,0,0,0,112-76.5a2.081,2.081,0,0,0-.085.293,2.454,2.454,0,0,0-.044.305c-.008.1-.012.2-.012.281Zm6.9-2.065a2.291,2.291,0,0,0,.1.671,1.73,1.73,0,0,0,.277.554,1.359,1.359,0,0,0,.442.378,1.225,1.225,0,0,0,.591.141,1.349,1.349,0,0,0,.647-.149,1.271,1.271,0,0,0,.454-.406,1.748,1.748,0,0,0,.257-.6,2.713,2.713,0,0,0,.064-.735,2.044,2.044,0,0,0-.109-.7,1.48,1.48,0,0,0-.3-.51,1.285,1.285,0,0,0-.45-.317,1.431,1.431,0,0,0-.563-.109,1.294,1.294,0,0,0-.6.137,1.266,1.266,0,0,0-.442.373,1.72,1.72,0,0,0-.269.563,2.579,2.579,0,0,0-.092.7m0,3.7h-.482v-5.8h.482v.731h.016a1.408,1.408,0,0,1,.269-.362,1.574,1.574,0,0,1,.361-.265,1.946,1.946,0,0,1,.406-.161,1.573,1.573,0,0,1,.41-.056,1.986,1.986,0,0,1,.86.169,1.6,1.6,0,0,1,.582.462,1.885,1.885,0,0,1,.334.695,3.41,3.41,0,0,1,.1.86,3.081,3.081,0,0,1-.113.835,2.071,2.071,0,0,1-.341.7,1.69,1.69,0,0,1-.579.482,1.767,1.767,0,0,1-.823.181,1.921,1.921,0,0,1-.848-.2,1.492,1.492,0,0,1-.639-.583Zm7.184-3.825a2.363,2.363,0,0,1-.619.169q-.313.04-.627.064a1.768,1.768,0,0,0-.864.249.714.714,0,0,0-.309.635.687.687,0,0,0,.076.334.7.7,0,0,0,.2.233.852.852,0,0,0,.289.137,1.284,1.284,0,0,0,.334.044,2.2,2.2,0,0,0,.562-.072,1.519,1.519,0,0,0,.486-.221,1.128,1.128,0,0,0,.342-.378,1.09,1.09,0,0,0,.129-.542Zm-.811-.241q.136-.016.325-.048a1.227,1.227,0,0,0,.309-.088.256.256,0,0,0,.149-.189,1.185,1.185,0,0,0,.028-.245.82.82,0,0,0-.237-.606,1.106,1.106,0,0,0-.8-.237,2.214,2.214,0,0,0-.458.044.992.992,0,0,0-.366.153.839.839,0,0,0-.257.289,1.228,1.228,0,0,0-.133.454h-.49a1.483,1.483,0,0,1,.169-.631,1.277,1.277,0,0,1,.373-.426,1.55,1.55,0,0,1,.53-.241,2.587,2.587,0,0,1,.639-.076,2.458,2.458,0,0,1,.591.068,1.368,1.368,0,0,1,.482.217,1,1,0,0,1,.321.4,1.436,1.436,0,0,1,.116.611v2.266q0,.281.1.358t.406-.036v.377l-.165.048a.74.74,0,0,1-.213.032.958.958,0,0,1-.217-.024.371.371,0,0,1-.193-.076.466.466,0,0,1-.117-.145.6.6,0,0,1-.06-.185,1.381,1.381,0,0,1-.016-.213,2.093,2.093,0,0,1-.7.514,2.052,2.052,0,0,1-.852.177,1.907,1.907,0,0,1-.526-.072,1.275,1.275,0,0,1-.446-.225,1.118,1.118,0,0,1-.305-.374,1.146,1.146,0,0,1-.113-.526q0-1.061,1.454-1.254Zm3.094-2.282a1.2,1.2,0,0,1,.056-.261.921.921,0,0,1,.1-.213.746.746,0,0,1,.309-.253.613.613,0,0,1,.4-.036,1.262,1.262,0,0,1,.241.081c.086.037.173.076.261.116s.174.075.257.1a.689.689,0,0,0,.229.044.262.262,0,0,0,.249-.129.99.99,0,0,0,.1-.273h.305a.973.973,0,0,1-.028.157c-.014.051-.025.1-.036.149a1.237,1.237,0,0,1-.225.338.483.483,0,0,1-.369.144.893.893,0,0,1-.317-.056q-.149-.056-.293-.125t-.285-.124a.741.741,0,0,0-.277-.056.3.3,0,0,0-.265.121,1.068,1.068,0,0,0-.129.273Zm.032,4.709h-.482v-4.162h.482v.579a3.056,3.056,0,0,1,.6-.5,1.377,1.377,0,0,1,.743-.193,1.9,1.9,0,0,1,.715.133,1.22,1.22,0,0,1,.554.462,1.037,1.037,0,0,1,.181.462,4.194,4.194,0,0,1,.028.494v2.724H130.6V-76.1a1.24,1.24,0,0,0-.249-.844,1.058,1.058,0,0,0-.828-.281,1.178,1.178,0,0,0-.41.068,1.294,1.294,0,0,0-.333.181,1.213,1.213,0,0,0-.253.257,1.2,1.2,0,0,0-.161.305,1.53,1.53,0,0,0-.088.386q-.016.185-.016.4Zm3.761-4.612.892-1.117h.619l-1.1,1.117Zm.361.45h.482v4.162h-.482Zm4.549,1.977a2.368,2.368,0,0,1-.619.169q-.314.04-.627.064a1.77,1.77,0,0,0-.864.249.714.714,0,0,0-.309.635.69.69,0,0,0,.076.334.7.7,0,0,0,.2.233.853.853,0,0,0,.289.137,1.281,1.281,0,0,0,.333.044,2.2,2.2,0,0,0,.563-.072,1.519,1.519,0,0,0,.486-.221,1.128,1.128,0,0,0,.342-.378,1.091,1.091,0,0,0,.129-.542Zm-.812-.241q.137-.016.325-.048a1.229,1.229,0,0,0,.31-.088.256.256,0,0,0,.148-.189,1.186,1.186,0,0,0,.028-.245.821.821,0,0,0-.237-.606,1.106,1.106,0,0,0-.8-.237,2.217,2.217,0,0,0-.458.044.994.994,0,0,0-.366.153.838.838,0,0,0-.257.289,1.232,1.232,0,0,0-.133.454h-.49a1.483,1.483,0,0,1,.169-.631,1.28,1.28,0,0,1,.373-.426,1.553,1.553,0,0,1,.53-.241,2.583,2.583,0,0,1,.639-.076,2.457,2.457,0,0,1,.591.068,1.368,1.368,0,0,1,.482.217,1,1,0,0,1,.321.4,1.436,1.436,0,0,1,.117.611v2.266q0,.281.1.358t.406-.036v.377l-.165.048a.742.742,0,0,1-.213.032.957.957,0,0,1-.217-.024.371.371,0,0,1-.193-.076.47.47,0,0,1-.117-.145.6.6,0,0,1-.06-.185,1.354,1.354,0,0,1-.016-.213,2.092,2.092,0,0,1-.7.514,2.053,2.053,0,0,1-.852.177,1.9,1.9,0,0,1-.526-.072,1.275,1.275,0,0,1-.446-.225,1.117,1.117,0,0,1-.305-.374,1.146,1.146,0,0,1-.113-.526q0-1.061,1.454-1.254Zm8,.329a2.294,2.294,0,0,0-.1-.671,1.741,1.741,0,0,0-.277-.554,1.362,1.362,0,0,0-.442-.378,1.227,1.227,0,0,0-.591-.141,1.347,1.347,0,0,0-.651.148,1.283,1.283,0,0,0-.45.406,1.748,1.748,0,0,0-.257.6,2.713,2.713,0,0,0-.064.735,2.044,2.044,0,0,0,.109.7,1.484,1.484,0,0,0,.3.51,1.287,1.287,0,0,0,.45.317,1.431,1.431,0,0,0,.563.109,1.294,1.294,0,0,0,.6-.137,1.266,1.266,0,0,0,.442-.374,1.711,1.711,0,0,0,.269-.563,2.575,2.575,0,0,0,.092-.7m0-3.688h.482v5.785h-.482v-.731h-.016a1.309,1.309,0,0,1-.269.366,1.645,1.645,0,0,1-.362.261,1.96,1.96,0,0,1-.406.161,1.571,1.571,0,0,1-.41.056,1.983,1.983,0,0,1-.86-.169,1.6,1.6,0,0,1-.582-.462,1.882,1.882,0,0,1-.334-.695,3.41,3.41,0,0,1-.1-.86,3.083,3.083,0,0,1,.113-.836,2.077,2.077,0,0,1,.341-.7,1.691,1.691,0,0,1,.579-.482,1.771,1.771,0,0,1,.824-.181,1.92,1.92,0,0,1,.848.2,1.489,1.489,0,0,1,.639.582Zm4.8,3.415a1.918,1.918,0,0,0-.084-.575,1.344,1.344,0,0,0-.249-.466,1.184,1.184,0,0,0-.414-.314,1.332,1.332,0,0,0-.57-.116,1.268,1.268,0,0,0-.567.12,1.3,1.3,0,0,0-.418.321,1.615,1.615,0,0,0-.277.466,2.168,2.168,0,0,0-.137.563Zm-2.716.4a2.26,2.26,0,0,0,.088.639,1.54,1.54,0,0,0,.261.522,1.264,1.264,0,0,0,.438.353,1.351,1.351,0,0,0,.611.133,1.331,1.331,0,0,0,.811-.249,1.2,1.2,0,0,0,.45-.707h.538a2.581,2.581,0,0,1-.233.55,1.7,1.7,0,0,1-.362.442,1.56,1.56,0,0,1-.514.293,2.086,2.086,0,0,1-.691.1,2.014,2.014,0,0,1-.86-.169,1.616,1.616,0,0,1-.595-.462,1.947,1.947,0,0,1-.346-.691,3.129,3.129,0,0,1-.112-.856,2.723,2.723,0,0,1,.133-.86,2.2,2.2,0,0,1,.377-.7,1.755,1.755,0,0,1,.6-.474,1.81,1.81,0,0,1,.8-.173,1.66,1.66,0,0,1,1.35.591,2.6,2.6,0,0,1,.482,1.716Zm6.476-3.817h.482v5.785h-.482Zm4.525,3.6a2.368,2.368,0,0,1-.619.169q-.314.04-.627.064a1.768,1.768,0,0,0-.864.249.713.713,0,0,0-.31.635.69.69,0,0,0,.076.334.7.7,0,0,0,.2.233.851.851,0,0,0,.289.137,1.281,1.281,0,0,0,.333.044,2.2,2.2,0,0,0,.563-.072,1.522,1.522,0,0,0,.486-.221,1.134,1.134,0,0,0,.342-.378,1.093,1.093,0,0,0,.129-.542Zm-.812-.241q.136-.016.325-.048a1.224,1.224,0,0,0,.309-.088.256.256,0,0,0,.148-.189,1.188,1.188,0,0,0,.029-.245.821.821,0,0,0-.237-.606,1.106,1.106,0,0,0-.8-.237,2.215,2.215,0,0,0-.458.044,1,1,0,0,0-.366.153.846.846,0,0,0-.257.289,1.228,1.228,0,0,0-.132.454h-.49a1.49,1.49,0,0,1,.169-.631,1.283,1.283,0,0,1,.374-.426,1.551,1.551,0,0,1,.53-.241,2.582,2.582,0,0,1,.639-.076,2.46,2.46,0,0,1,.591.068,1.366,1.366,0,0,1,.482.217,1.009,1.009,0,0,1,.322.4,1.44,1.44,0,0,1,.116.611v2.266q0,.281.1.358c.067.051.2.039.406-.036v.377l-.165.048a.74.74,0,0,1-.213.032.955.955,0,0,1-.217-.024.371.371,0,0,1-.193-.076.47.47,0,0,1-.117-.145.6.6,0,0,1-.06-.185,1.324,1.324,0,0,1-.016-.213,2.093,2.093,0,0,1-.7.514,2.051,2.051,0,0,1-.852.177,1.9,1.9,0,0,1-.526-.072,1.279,1.279,0,0,1-.446-.225,1.121,1.121,0,0,1-.305-.374,1.149,1.149,0,0,1-.112-.526q0-1.061,1.455-1.254Zm2.926,1.125a1.224,1.224,0,0,0,.406.759,1.376,1.376,0,0,0,.84.221,1.45,1.45,0,0,0,.458-.064.918.918,0,0,0,.317-.173.747.747,0,0,0,.189-.245.672.672,0,0,0,.064-.289.532.532,0,0,0-.2-.454,1.49,1.49,0,0,0-.494-.233,6.345,6.345,0,0,0-.643-.145,3.142,3.142,0,0,1-.643-.181,1.288,1.288,0,0,1-.494-.345.934.934,0,0,1-.2-.635,1.085,1.085,0,0,1,.382-.856,1.591,1.591,0,0,1,1.081-.334,1.846,1.846,0,0,1,1.1.3,1.378,1.378,0,0,1,.51,1.009h-.49a.9.9,0,0,0-.366-.679,1.361,1.361,0,0,0-.759-.2,1.081,1.081,0,0,0-.7.2.636.636,0,0,0-.241.518.507.507,0,0,0,.2.43,1.6,1.6,0,0,0,.494.241q.3.093.643.165a3.165,3.165,0,0,1,.643.205,1.4,1.4,0,0,1,.494.358.921.921,0,0,1,.2.627,1.056,1.056,0,0,1-.129.526,1.12,1.12,0,0,1-.353.382,1.641,1.641,0,0,1-.535.229,2.82,2.82,0,0,1-.679.076,1.836,1.836,0,0,1-.655-.109,1.424,1.424,0,0,1-.486-.3,1.4,1.4,0,0,1-.314-.45,1.586,1.586,0,0,1-.129-.554Z" transform="translate(-93.737 98.414)" fill="#fff"/>
</svg>
