<svg id="Grupo_2478" data-name="Grupo 2478" xmlns="http://www.w3.org/2000/svg" width="101.17" height="21.244" viewBox="0 0 101.17 21.244">
  <path id="path22" d="M0-86.3H2.838v-4.657a5.762,5.762,0,0,1,.14-1.289,2.844,2.844,0,0,1,.47-1.059,2.283,2.283,0,0,1,.869-.709,3.022,3.022,0,0,1,1.319-.26,5.052,5.052,0,0,1,.54.03q.28.03.48.07v-2.638a1.949,1.949,0,0,0-.62-.1,3.418,3.418,0,0,0-1.029.16,3.766,3.766,0,0,0-.949.45,3.543,3.543,0,0,0-.779.7,3.491,3.491,0,0,0-.54.889H2.7v-1.918H0Zm16.623-4.477a7.294,7.294,0,0,0-.2-2.3,5.627,5.627,0,0,0-.909-1.959A4.587,4.587,0,0,0,13.9-96.4a4.914,4.914,0,0,0-2.3-.509,5.352,5.352,0,0,0-2.149.42,5.079,5.079,0,0,0-1.669,1.149A5.065,5.065,0,0,0,6.71-93.61a6.027,6.027,0,0,0-.38,2.159,6.29,6.29,0,0,0,.37,2.2,4.993,4.993,0,0,0,1.049,1.719,4.677,4.677,0,0,0,1.659,1.119,5.772,5.772,0,0,0,2.2.4,5.312,5.312,0,0,0,3-.819,4.837,4.837,0,0,0,1.839-2.658h-2.5a1.782,1.782,0,0,1-.76.909,2.529,2.529,0,0,1-1.479.43,2.512,2.512,0,0,1-1.839-.63,2.878,2.878,0,0,1-.7-1.988Zm-7.455-1.8a3.244,3.244,0,0,1,.13-.68,2.087,2.087,0,0,1,.38-.72,2.151,2.151,0,0,1,.72-.569,2.469,2.469,0,0,1,1.129-.23,1.993,1.993,0,0,1,1.549.56,3.28,3.28,0,0,1,.709,1.639ZM17.437-86.3h2.838V-96.628H17.437Zm2.838-14.27H17.437v2.338h2.838ZM21.569-86.3h2.838v-5.416a3.834,3.834,0,0,1,.52-2.268,1.967,1.967,0,0,1,1.679-.689,1.552,1.552,0,0,1,1.409.629,3.548,3.548,0,0,1,.41,1.909V-86.3h2.838v-6.355a8.337,8.337,0,0,0-.17-1.749,3.329,3.329,0,0,0-.59-1.339,2.773,2.773,0,0,0-1.149-.859,4.818,4.818,0,0,0-1.869-.31,3.966,3.966,0,0,0-1.759.42,3.354,3.354,0,0,0-1.4,1.3h-.06v-1.439h-2.7Zm18.281,0h2.7v-14.27H39.711v5.2h-.04a3.048,3.048,0,0,0-1.309-1.149,4.064,4.064,0,0,0-1.749-.39,4.251,4.251,0,0,0-2,.45,4.286,4.286,0,0,0-1.429,1.189,5.222,5.222,0,0,0-.86,1.709,6.981,6.981,0,0,0-.29,2.008,7.432,7.432,0,0,0,.29,2.078,5.539,5.539,0,0,0,.86,1.769,4.213,4.213,0,0,0,1.439,1.229,4.322,4.322,0,0,0,2.048.46,4.273,4.273,0,0,0,1.819-.38,2.976,2.976,0,0,0,1.319-1.219h.04Zm-.04-5.2a6.3,6.3,0,0,1-.12,1.239,3.365,3.365,0,0,1-.4,1.069,2.127,2.127,0,0,1-.75.749,2.25,2.25,0,0,1-1.169.28,2.107,2.107,0,0,1-1.129-.29,2.493,2.493,0,0,1-.779-.759,3.282,3.282,0,0,1-.45-1.069,5.262,5.262,0,0,1-.14-1.2A5.694,5.694,0,0,1,35-92.7a3.27,3.27,0,0,1,.42-1.049,2.211,2.211,0,0,1,.769-.74,2.307,2.307,0,0,1,1.179-.28,2.21,2.21,0,0,1,1.149.28,2.272,2.272,0,0,1,.76.73,3.008,3.008,0,0,1,.41,1.049,6.2,6.2,0,0,1,.12,1.219m13.625-5.136H50.6v5.416a3.833,3.833,0,0,1-.52,2.268,1.966,1.966,0,0,1-1.679.69,1.552,1.552,0,0,1-1.409-.63,3.55,3.55,0,0,1-.41-1.909v-5.836H43.742v6.355a8.323,8.323,0,0,0,.17,1.749,3.323,3.323,0,0,0,.59,1.339,2.771,2.771,0,0,0,1.149.86,4.821,4.821,0,0,0,1.869.31,3.964,3.964,0,0,0,1.759-.42,3.353,3.353,0,0,0,1.4-1.3h.06V-86.3h2.7Zm.714,6.975a3.5,3.5,0,0,0,.47,1.719,3.5,3.5,0,0,0,1.1,1.129,4.514,4.514,0,0,0,1.529.61,8.558,8.558,0,0,0,1.759.18,8.319,8.319,0,0,0,1.729-.18,4.532,4.532,0,0,0,1.509-.6A3.28,3.28,0,0,0,63.313-87.9a3.3,3.3,0,0,0,.41-1.709,2.4,2.4,0,0,0-.28-1.209,2.555,2.555,0,0,0-.739-.819,3.973,3.973,0,0,0-1.049-.53,12,12,0,0,0-1.209-.34q-.6-.14-1.179-.26a9.115,9.115,0,0,1-1.029-.27,2.157,2.157,0,0,1-.729-.39.778.778,0,0,1-.28-.619.766.766,0,0,1,.16-.51,1.05,1.05,0,0,1,.39-.29,1.733,1.733,0,0,1,.509-.13,4.886,4.886,0,0,1,.52-.03,2.833,2.833,0,0,1,1.319.29,1.241,1.241,0,0,1,.619,1.109h2.7a3.389,3.389,0,0,0-.49-1.589,3.235,3.235,0,0,0-1.029-1.009,4.309,4.309,0,0,0-1.409-.54,8.179,8.179,0,0,0-1.629-.16,8.875,8.875,0,0,0-1.639.15,4.518,4.518,0,0,0-1.439.52,2.849,2.849,0,0,0-1.029,1.019,3.119,3.119,0,0,0-.39,1.629,2.209,2.209,0,0,0,.28,1.149,2.428,2.428,0,0,0,.739.779,4.131,4.131,0,0,0,1.049.5q.589.19,1.209.33.759.16,1.359.31a6.427,6.427,0,0,1,1.009.33,1.944,1.944,0,0,1,.629.41.768.768,0,0,1,.22.55,1.05,1.05,0,0,1-.18.629,1.36,1.36,0,0,1-.45.4,2.142,2.142,0,0,1-.6.22,3.041,3.041,0,0,1-.629.07,3.238,3.238,0,0,1-.809-.1,2.1,2.1,0,0,1-.69-.31,1.658,1.658,0,0,1-.489-.54,1.557,1.557,0,0,1-.19-.79ZM68.035-99.726H65.2v3.1H63.478v1.9H65.2v6.1a2.641,2.641,0,0,0,.26,1.259,1.923,1.923,0,0,0,.709.75,2.827,2.827,0,0,0,1.039.36,8.282,8.282,0,0,0,1.249.09q.42,0,.859-.02a6.747,6.747,0,0,0,.8-.08v-2.218a4.488,4.488,0,0,1-.879.08,1.389,1.389,0,0,1-.959-.24,1.388,1.388,0,0,1-.24-.959v-5.116h2.078v-1.9H68.035ZM70.527-86.3h2.838v-4.657a5.741,5.741,0,0,1,.14-1.289,2.843,2.843,0,0,1,.47-1.059,2.283,2.283,0,0,1,.87-.709,3.021,3.021,0,0,1,1.319-.26,5.048,5.048,0,0,1,.54.03q.28.03.48.07v-2.638a1.948,1.948,0,0,0-.62-.1,3.419,3.419,0,0,0-1.029.16,3.761,3.761,0,0,0-.949.45,3.538,3.538,0,0,0-.779.7,3.486,3.486,0,0,0-.54.889h-.04v-1.918h-2.7Zm6.91,0h2.838V-96.628H77.437Zm2.838-14.27H77.437v2.338h2.838ZM88-90.292a5.422,5.422,0,0,1-.05.639,2.143,2.143,0,0,1-.27.79,1.871,1.871,0,0,1-.68.669,2.506,2.506,0,0,1-1.3.28,3.559,3.559,0,0,1-.66-.06,1.607,1.607,0,0,1-.56-.21,1.1,1.1,0,0,1-.38-.4,1.323,1.323,0,0,1-.14-.649,1.4,1.4,0,0,1,.14-.649,1.255,1.255,0,0,1,.37-.44,1.886,1.886,0,0,1,.53-.27,4.482,4.482,0,0,1,.639-.16q.32-.06.67-.1t.66-.1a4.578,4.578,0,0,0,.579-.15,1.268,1.268,0,0,0,.45-.25ZM84.287-93.45a1.589,1.589,0,0,1,.57-1.2,2.163,2.163,0,0,1,1.309-.36,4.747,4.747,0,0,1,.709.05,1.572,1.572,0,0,1,.579.2,1.1,1.1,0,0,1,.4.42,1.5,1.5,0,0,1,.15.729.816.816,0,0,1-.28.67,1.913,1.913,0,0,1-.749.35,7.306,7.306,0,0,1-1.069.18q-.6.06-1.259.16a11.606,11.606,0,0,0-1.289.27,3.705,3.705,0,0,0-1.129.51,2.466,2.466,0,0,0-.8.909,3.1,3.1,0,0,0-.3,1.449,3.247,3.247,0,0,0,.27,1.379,2.606,2.606,0,0,0,.75.959,3.294,3.294,0,0,0,1.119.57,4.827,4.827,0,0,0,1.379.19,6.213,6.213,0,0,0,1.879-.29,3.783,3.783,0,0,0,1.6-.989,4.254,4.254,0,0,0,.07.51,4.1,4.1,0,0,0,.13.49H91.2a2.419,2.419,0,0,1-.28-.959,10.782,10.782,0,0,1-.08-1.339V-93.97a2.5,2.5,0,0,0-.42-1.5,2.837,2.837,0,0,0-1.079-.9,4.827,4.827,0,0,0-1.459-.43,11.594,11.594,0,0,0-1.579-.11,8.635,8.635,0,0,0-1.719.17,4.881,4.881,0,0,0-1.519.569,3.406,3.406,0,0,0-1.119,1.059,3.3,3.3,0,0,0-.5,1.659Zm7.31,3.8a3.5,3.5,0,0,0,.47,1.719,3.493,3.493,0,0,0,1.1,1.129,4.513,4.513,0,0,0,1.529.61,8.56,8.56,0,0,0,1.759.18,8.319,8.319,0,0,0,1.729-.18,4.533,4.533,0,0,0,1.509-.6A3.281,3.281,0,0,0,100.76-87.9a3.3,3.3,0,0,0,.41-1.709,2.406,2.406,0,0,0-.28-1.209,2.56,2.56,0,0,0-.74-.819,3.976,3.976,0,0,0-1.049-.53,12,12,0,0,0-1.209-.34q-.6-.14-1.179-.26a9.115,9.115,0,0,1-1.029-.27,2.157,2.157,0,0,1-.729-.39.777.777,0,0,1-.28-.619.765.765,0,0,1,.16-.51,1.05,1.05,0,0,1,.39-.29,1.734,1.734,0,0,1,.51-.13,4.879,4.879,0,0,1,.52-.03,2.833,2.833,0,0,1,1.319.29,1.242,1.242,0,0,1,.62,1.109h2.7a3.4,3.4,0,0,0-.49-1.589,3.238,3.238,0,0,0-1.029-1.009,4.308,4.308,0,0,0-1.409-.54,8.179,8.179,0,0,0-1.629-.16,8.875,8.875,0,0,0-1.639.15,4.513,4.513,0,0,0-1.439.52,2.847,2.847,0,0,0-1.029,1.019,3.119,3.119,0,0,0-.39,1.629,2.207,2.207,0,0,0,.28,1.149,2.428,2.428,0,0,0,.739.779,4.131,4.131,0,0,0,1.049.5q.589.19,1.209.33.76.16,1.359.31a6.433,6.433,0,0,1,1.009.33,1.946,1.946,0,0,1,.629.41.767.767,0,0,1,.22.55,1.05,1.05,0,0,1-.18.629,1.364,1.364,0,0,1-.45.4,2.144,2.144,0,0,1-.6.22,3.04,3.04,0,0,1-.629.07,3.238,3.238,0,0,1-.809-.1,2.1,2.1,0,0,1-.69-.31,1.659,1.659,0,0,1-.49-.54,1.557,1.557,0,0,1-.19-.79Z" transform="translate(0 100.565)" fill="#fff"/>
  <path id="path26" d="M-2.321-17.764a2.036,2.036,0,0,0,.074.56,1.359,1.359,0,0,0,.214.448,1.01,1.01,0,0,0,.352.3,1.031,1.031,0,0,0,.48.109,1.143,1.143,0,0,0,.448-.086A1.029,1.029,0,0,0-.4-16.689a1.181,1.181,0,0,0,.24-.406,1.633,1.633,0,0,0,.086-.554,2.169,2.169,0,0,0-.051-.586,1.4,1.4,0,0,0-.2-.477,1.014,1.014,0,0,0-.362-.323,1.075,1.075,0,0,0-.515-.118.974.974,0,0,0-.47.112,1.079,1.079,0,0,0-.352.3,1.383,1.383,0,0,0-.221.441,1.834,1.834,0,0,0-.077.534m0,1.67h-.384V-20.7h.384v1.824a1.188,1.188,0,0,1,.509-.464,1.53,1.53,0,0,1,.675-.157,1.411,1.411,0,0,1,.656.144,1.346,1.346,0,0,1,.461.384,1.651,1.651,0,0,1,.272.56,2.464,2.464,0,0,1,.089.666,2.715,2.715,0,0,1-.083.685,1.5,1.5,0,0,1-.266.553,1.272,1.272,0,0,1-.464.368A1.579,1.579,0,0,1-1.157-16a1.25,1.25,0,0,1-.326-.045,1.544,1.544,0,0,1-.323-.128,1.306,1.306,0,0,1-.288-.208,1.047,1.047,0,0,1-.215-.291h-.013Zm5.8-3.315h.384v3.315H3.477v-.461q-.077.089-.173.186a1.319,1.319,0,0,1-.221.176,1.271,1.271,0,0,1-.291.134A1.233,1.233,0,0,1,2.408-16a1.459,1.459,0,0,1-.557-.093.913.913,0,0,1-.362-.259,1.025,1.025,0,0,1-.2-.387,1.81,1.81,0,0,1-.061-.483v-2.182h.384v2.176a.969.969,0,0,0,.2.656.827.827,0,0,0,.653.227.952.952,0,0,0,.426-.093.892.892,0,0,0,.317-.259,1.237,1.237,0,0,0,.2-.4,1.725,1.725,0,0,0,.07-.506ZM7.26-17.981a1.527,1.527,0,0,0-.067-.458,1.07,1.07,0,0,0-.2-.371.947.947,0,0,0-.33-.25,1.061,1.061,0,0,0-.454-.093,1.01,1.01,0,0,0-.451.1,1.039,1.039,0,0,0-.333.256,1.287,1.287,0,0,0-.221.371,1.727,1.727,0,0,0-.109.448Zm-2.163.32a1.8,1.8,0,0,0,.07.509,1.224,1.224,0,0,0,.208.416,1,1,0,0,0,.348.282,1.076,1.076,0,0,0,.487.106,1.06,1.06,0,0,0,.646-.2.955.955,0,0,0,.358-.563h.429a2.052,2.052,0,0,1-.186.438,1.35,1.35,0,0,1-.288.352,1.241,1.241,0,0,1-.41.234,1.659,1.659,0,0,1-.55.083,1.6,1.6,0,0,1-.685-.135,1.287,1.287,0,0,1-.474-.368,1.549,1.549,0,0,1-.275-.55,2.491,2.491,0,0,1-.09-.681,2.172,2.172,0,0,1,.106-.685,1.752,1.752,0,0,1,.3-.56,1.4,1.4,0,0,1,.477-.377,1.439,1.439,0,0,1,.64-.138,1.322,1.322,0,0,1,1.075.47,2.068,2.068,0,0,1,.384,1.366Zm3.777,1.568H8.489v-3.315h.384v.461a2.445,2.445,0,0,1,.477-.4,1.1,1.1,0,0,1,.592-.154,1.517,1.517,0,0,1,.57.106.975.975,0,0,1,.442.368.827.827,0,0,1,.144.368,3.34,3.34,0,0,1,.022.394v2.169h-.384v-2.163a.988.988,0,0,0-.2-.672.842.842,0,0,0-.659-.224.938.938,0,0,0-.326.054,1.03,1.03,0,0,0-.265.144.966.966,0,0,0-.2.2.958.958,0,0,0-.128.243,1.22,1.22,0,0,0-.07.307q-.013.147-.013.32Zm5.415-1.741a1.881,1.881,0,0,1-.493.134q-.249.032-.5.051a1.408,1.408,0,0,0-.688.2.569.569,0,0,0-.246.506.546.546,0,0,0,.061.265.56.56,0,0,0,.16.186.675.675,0,0,0,.23.109,1.023,1.023,0,0,0,.266.035,1.743,1.743,0,0,0,.448-.058,1.213,1.213,0,0,0,.387-.176.9.9,0,0,0,.272-.3.868.868,0,0,0,.1-.432Zm-.646-.192q.109-.013.259-.038a.977.977,0,0,0,.246-.07.2.2,0,0,0,.118-.15.944.944,0,0,0,.022-.2.654.654,0,0,0-.189-.483.881.881,0,0,0-.637-.189,1.764,1.764,0,0,0-.365.035.793.793,0,0,0-.291.122.668.668,0,0,0-.2.23.978.978,0,0,0-.106.362h-.39a1.184,1.184,0,0,1,.135-.5,1.017,1.017,0,0,1,.3-.339,1.235,1.235,0,0,1,.422-.192,2.06,2.06,0,0,1,.509-.061,1.958,1.958,0,0,1,.47.054,1.09,1.09,0,0,1,.384.173.8.8,0,0,1,.256.317,1.143,1.143,0,0,1,.093.486v1.8q0,.224.08.285t.323-.029v.3l-.131.038a.592.592,0,0,1-.17.026.775.775,0,0,1-.173-.019.3.3,0,0,1-.153-.061.377.377,0,0,1-.093-.115.475.475,0,0,1-.048-.147,1.076,1.076,0,0,1-.013-.17,1.669,1.669,0,0,1-.557.41,1.639,1.639,0,0,1-.678.141,1.524,1.524,0,0,1-.419-.058,1.015,1.015,0,0,1-.355-.179.889.889,0,0,1-.243-.3.916.916,0,0,1-.09-.419q0-.845,1.158-1Zm2.33.9a.975.975,0,0,0,.323.6,1.1,1.1,0,0,0,.669.176,1.159,1.159,0,0,0,.365-.051.735.735,0,0,0,.253-.138.592.592,0,0,0,.15-.2.532.532,0,0,0,.051-.23.424.424,0,0,0-.157-.362,1.185,1.185,0,0,0-.394-.186,5.03,5.03,0,0,0-.512-.115,2.51,2.51,0,0,1-.512-.144,1.026,1.026,0,0,1-.394-.275.744.744,0,0,1-.157-.506.864.864,0,0,1,.3-.681,1.267,1.267,0,0,1,.86-.266,1.469,1.469,0,0,1,.874.24,1.1,1.1,0,0,1,.406.8h-.39A.718.718,0,0,0,17.422-19a1.084,1.084,0,0,0-.6-.157A.861.861,0,0,0,16.26-19a.507.507,0,0,0-.192.413.4.4,0,0,0,.157.342,1.283,1.283,0,0,0,.394.192q.237.073.512.131a2.511,2.511,0,0,1,.512.163,1.118,1.118,0,0,1,.394.285.733.733,0,0,1,.157.5.842.842,0,0,1-.1.419.891.891,0,0,1-.282.3,1.3,1.3,0,0,1-.425.182,2.247,2.247,0,0,1-.541.061,1.464,1.464,0,0,1-.522-.086,1.133,1.133,0,0,1-.387-.24,1.107,1.107,0,0,1-.25-.358,1.266,1.266,0,0,1-.1-.442Zm5.088,1.037h-.384v-3.315h.384v.5h.013a1.012,1.012,0,0,1,.422-.438,1.234,1.234,0,0,1,.6-.15,1.3,1.3,0,0,1,.39.051.88.88,0,0,1,.272.138.79.79,0,0,1,.186.2,1.369,1.369,0,0,1,.125.25,1.115,1.115,0,0,1,.445-.483,1.275,1.275,0,0,1,.637-.157,1.116,1.116,0,0,1,.541.112.813.813,0,0,1,.31.294,1.133,1.133,0,0,1,.144.419,3.3,3.3,0,0,1,.035.486v2.093H24.8v-2.291a.936.936,0,0,0-.15-.563.656.656,0,0,0-.56-.2.936.936,0,0,0-.406.093.943.943,0,0,0-.342.285.75.75,0,0,0-.106.2,1.682,1.682,0,0,0-.067.234,1.92,1.92,0,0,0-.035.243q-.01.122-.009.224v1.785h-.384v-2.291a.934.934,0,0,0-.15-.563.655.655,0,0,0-.56-.2.936.936,0,0,0-.406.093.944.944,0,0,0-.342.285.745.745,0,0,0-.106.2,1.657,1.657,0,0,0-.067.234,1.954,1.954,0,0,0-.035.243q-.01.122-.01.224ZM28.3-17.834a1.884,1.884,0,0,1-.493.134q-.25.032-.5.051a1.408,1.408,0,0,0-.688.2.569.569,0,0,0-.246.506.55.55,0,0,0,.061.265.563.563,0,0,0,.16.186.673.673,0,0,0,.23.109,1.022,1.022,0,0,0,.266.035,1.741,1.741,0,0,0,.448-.058,1.211,1.211,0,0,0,.387-.176.9.9,0,0,0,.272-.3.87.87,0,0,0,.1-.432Zm-.646-.192q.109-.013.259-.038a.977.977,0,0,0,.246-.07.2.2,0,0,0,.118-.15.944.944,0,0,0,.022-.2.653.653,0,0,0-.189-.483.881.881,0,0,0-.637-.189,1.763,1.763,0,0,0-.365.035.793.793,0,0,0-.291.122.668.668,0,0,0-.2.23.978.978,0,0,0-.106.362h-.39a1.181,1.181,0,0,1,.135-.5,1.017,1.017,0,0,1,.3-.339,1.234,1.234,0,0,1,.422-.192,2.058,2.058,0,0,1,.509-.061,1.956,1.956,0,0,1,.47.054,1.086,1.086,0,0,1,.384.173.8.8,0,0,1,.256.317,1.144,1.144,0,0,1,.093.486v1.8q0,.224.08.285t.323-.029v.3l-.131.038a.59.59,0,0,1-.17.026.773.773,0,0,1-.173-.019.3.3,0,0,1-.154-.061.374.374,0,0,1-.093-.115.476.476,0,0,1-.048-.147,1.076,1.076,0,0,1-.013-.17,1.668,1.668,0,0,1-.557.41A1.637,1.637,0,0,1,27.07-16a1.525,1.525,0,0,1-.419-.058,1.016,1.016,0,0,1-.355-.179.889.889,0,0,1-.243-.3.911.911,0,0,1-.09-.419q0-.845,1.158-1Zm2.509,1.933h-.384v-3.315h.384v.621h.013a1.111,1.111,0,0,1,.413-.554,1.257,1.257,0,0,1,.669-.157v.416a1.12,1.12,0,0,0-.538.1.888.888,0,0,0-.336.294,1.169,1.169,0,0,0-.173.438,2.828,2.828,0,0,0-.048.528Zm4.033-2.272a1.117,1.117,0,0,0-.352-.579.957.957,0,0,0-.634-.208,1,1,0,0,0-.506.122,1.022,1.022,0,0,0-.345.323,1.455,1.455,0,0,0-.2.454,2.071,2.071,0,0,0-.064.509,2.166,2.166,0,0,0,.061.512,1.365,1.365,0,0,0,.2.448,1,1,0,0,0,.346.317,1.03,1.03,0,0,0,.512.118.98.98,0,0,0,.688-.237,1.1,1.1,0,0,0,.33-.653h.41a1.938,1.938,0,0,1-.163.5,1.328,1.328,0,0,1-.288.39,1.238,1.238,0,0,1-.419.253,1.6,1.6,0,0,1-.557.09,1.605,1.605,0,0,1-.685-.135,1.287,1.287,0,0,1-.474-.368,1.551,1.551,0,0,1-.275-.553,2.528,2.528,0,0,1-.09-.685,2.2,2.2,0,0,1,.1-.662,1.722,1.722,0,0,1,.291-.56,1.409,1.409,0,0,1,.477-.387,1.436,1.436,0,0,1,.656-.144,1.477,1.477,0,0,1,.931.275,1.276,1.276,0,0,1,.445.857Zm3.45.531a1.883,1.883,0,0,1-.493.134q-.25.032-.5.051a1.408,1.408,0,0,0-.688.2.569.569,0,0,0-.246.506.548.548,0,0,0,.061.265.561.561,0,0,0,.16.186.673.673,0,0,0,.23.109,1.022,1.022,0,0,0,.266.035,1.743,1.743,0,0,0,.448-.058,1.212,1.212,0,0,0,.387-.176.9.9,0,0,0,.272-.3.868.868,0,0,0,.1-.432ZM37-18.026q.109-.013.259-.038a.974.974,0,0,0,.247-.07.2.2,0,0,0,.118-.15.945.945,0,0,0,.023-.2.654.654,0,0,0-.189-.483.881.881,0,0,0-.637-.189,1.767,1.767,0,0,0-.365.035.8.8,0,0,0-.291.122.672.672,0,0,0-.2.23.975.975,0,0,0-.105.362h-.391a1.187,1.187,0,0,1,.134-.5,1.022,1.022,0,0,1,.3-.339,1.235,1.235,0,0,1,.422-.192,2.056,2.056,0,0,1,.509-.061,1.96,1.96,0,0,1,.471.054,1.086,1.086,0,0,1,.384.173.8.8,0,0,1,.256.317,1.143,1.143,0,0,1,.093.486v1.8q0,.224.08.285t.323-.029v.3l-.131.038a.59.59,0,0,1-.17.026.771.771,0,0,1-.173-.019.3.3,0,0,1-.154-.061.371.371,0,0,1-.093-.115.471.471,0,0,1-.048-.147,1.075,1.075,0,0,1-.013-.17,1.663,1.663,0,0,1-.557.41,1.636,1.636,0,0,1-.678.141A1.526,1.526,0,0,1,36-16.061a1.016,1.016,0,0,1-.355-.179.891.891,0,0,1-.243-.3.914.914,0,0,1-.09-.419q0-.845,1.158-1Zm2.33.9a.975.975,0,0,0,.323.6,1.1,1.1,0,0,0,.669.176,1.16,1.16,0,0,0,.365-.051.737.737,0,0,0,.253-.138.6.6,0,0,0,.15-.2.535.535,0,0,0,.051-.23.424.424,0,0,0-.157-.362,1.186,1.186,0,0,0-.394-.186,5.064,5.064,0,0,0-.512-.115,2.5,2.5,0,0,1-.512-.144,1.024,1.024,0,0,1-.394-.275.743.743,0,0,1-.157-.506.864.864,0,0,1,.3-.681,1.267,1.267,0,0,1,.861-.266,1.469,1.469,0,0,1,.874.24,1.1,1.1,0,0,1,.406.8h-.39A.718.718,0,0,0,40.777-19a1.083,1.083,0,0,0-.6-.157.861.861,0,0,0-.557.157.506.506,0,0,0-.192.413.4.4,0,0,0,.157.342,1.28,1.28,0,0,0,.394.192q.237.074.512.131a2.511,2.511,0,0,1,.512.163,1.117,1.117,0,0,1,.394.285.733.733,0,0,1,.157.5.842.842,0,0,1-.1.419.889.889,0,0,1-.282.3,1.308,1.308,0,0,1-.425.182A2.25,2.25,0,0,1,40.2-16a1.464,1.464,0,0,1-.522-.086,1.133,1.133,0,0,1-.387-.24,1.107,1.107,0,0,1-.25-.358,1.27,1.27,0,0,1-.1-.442Z" transform="translate(58.827 36.199)" fill="#fff"/>
  <path id="path28" d="M93.826-79.165h.384v4.608h-.384Zm3.6,2.867a1.884,1.884,0,0,1-.493.134q-.249.032-.5.051a1.408,1.408,0,0,0-.688.2.569.569,0,0,0-.247.506.549.549,0,0,0,.061.266.562.562,0,0,0,.16.186.679.679,0,0,0,.23.109,1.021,1.021,0,0,0,.265.035,1.752,1.752,0,0,0,.448-.058,1.209,1.209,0,0,0,.387-.176.9.9,0,0,0,.272-.3.87.87,0,0,0,.1-.432Zm-.646-.192q.109-.013.259-.038a.979.979,0,0,0,.247-.07.2.2,0,0,0,.118-.15.945.945,0,0,0,.023-.2.654.654,0,0,0-.189-.483.88.88,0,0,0-.637-.189,1.766,1.766,0,0,0-.365.035.793.793,0,0,0-.291.122.67.67,0,0,0-.2.23.978.978,0,0,0-.106.362h-.39a1.184,1.184,0,0,1,.134-.5,1.02,1.02,0,0,1,.3-.339A1.236,1.236,0,0,1,96.1-77.9a2.058,2.058,0,0,1,.509-.061,1.957,1.957,0,0,1,.47.054,1.087,1.087,0,0,1,.384.173.8.8,0,0,1,.256.317,1.143,1.143,0,0,1,.093.486v1.8q0,.224.08.285t.323-.029v.3l-.131.038a.591.591,0,0,1-.17.026.762.762,0,0,1-.173-.019.3.3,0,0,1-.153-.061A.375.375,0,0,1,97.5-74.7a.472.472,0,0,1-.048-.147,1.078,1.078,0,0,1-.013-.17,1.667,1.667,0,0,1-.557.409,1.634,1.634,0,0,1-.678.141,1.518,1.518,0,0,1-.419-.058,1.016,1.016,0,0,1-.355-.179.888.888,0,0,1-.243-.3.91.91,0,0,1-.09-.419q0-.845,1.158-1Zm6.163-.339a1.113,1.113,0,0,0-.352-.579.956.956,0,0,0-.634-.208,1,1,0,0,0-.506.122,1.022,1.022,0,0,0-.345.323,1.459,1.459,0,0,0-.2.454,2.07,2.07,0,0,0-.064.509,2.147,2.147,0,0,0,.061.512,1.366,1.366,0,0,0,.2.448,1.006,1.006,0,0,0,.346.317,1.032,1.032,0,0,0,.512.118.98.98,0,0,0,.688-.237,1.1,1.1,0,0,0,.33-.653h.409a1.924,1.924,0,0,1-.163.5,1.325,1.325,0,0,1-.288.39,1.241,1.241,0,0,1-.419.253,1.6,1.6,0,0,1-.557.09,1.607,1.607,0,0,1-.685-.135,1.288,1.288,0,0,1-.474-.368,1.551,1.551,0,0,1-.275-.553,2.536,2.536,0,0,1-.09-.685,2.2,2.2,0,0,1,.1-.662,1.723,1.723,0,0,1,.291-.56,1.411,1.411,0,0,1,.477-.387,1.436,1.436,0,0,1,.656-.144,1.477,1.477,0,0,1,.931.275,1.277,1.277,0,0,1,.445.857Zm3.725.615a2.276,2.276,0,0,0-.064-.55,1.306,1.306,0,0,0-.2-.445.954.954,0,0,0-.345-.3,1.121,1.121,0,0,0-.518-.109,1.053,1.053,0,0,0-.515.118,1.008,1.008,0,0,0-.349.314,1.38,1.38,0,0,0-.2.448,2.123,2.123,0,0,0-.064.522,2.07,2.07,0,0,0,.074.566,1.329,1.329,0,0,0,.215.445.961.961,0,0,0,.352.288,1.1,1.1,0,0,0,.486.1,1.051,1.051,0,0,0,.515-.118,1,1,0,0,0,.349-.317,1.422,1.422,0,0,0,.2-.448,2.09,2.09,0,0,0,.064-.518m-1.126,1.747a1.729,1.729,0,0,1-.6-.115,1.345,1.345,0,0,1-.486-.326,1.571,1.571,0,0,1-.33-.544,2.18,2.18,0,0,1-.122-.762,2.334,2.334,0,0,1,.1-.682,1.61,1.61,0,0,1,.288-.554,1.367,1.367,0,0,1,.48-.374,1.545,1.545,0,0,1,.672-.138,1.56,1.56,0,0,1,.678.138,1.384,1.384,0,0,1,.48.371,1.536,1.536,0,0,1,.285.554,2.448,2.448,0,0,1,.093.685,2.215,2.215,0,0,1-.109.717,1.615,1.615,0,0,1-.31.55,1.368,1.368,0,0,1-.486.355,1.554,1.554,0,0,1-.63.125m2.644-.09h-.384v-3.315h.384v.5h.013a1.011,1.011,0,0,1,.422-.438,1.234,1.234,0,0,1,.6-.15,1.3,1.3,0,0,1,.39.051.885.885,0,0,1,.272.138.8.8,0,0,1,.185.2,1.362,1.362,0,0,1,.125.25,1.114,1.114,0,0,1,.445-.483,1.275,1.275,0,0,1,.637-.157,1.115,1.115,0,0,1,.541.112.811.811,0,0,1,.31.294,1.133,1.133,0,0,1,.144.419,3.278,3.278,0,0,1,.035.486v2.093h-.384v-2.291a.935.935,0,0,0-.15-.563.654.654,0,0,0-.56-.2.934.934,0,0,0-.406.093.94.94,0,0,0-.343.285.746.746,0,0,0-.105.2,1.661,1.661,0,0,0-.067.234,1.921,1.921,0,0,0-.035.243c-.007.081-.01.156-.01.224v1.785h-.384v-2.291a.935.935,0,0,0-.15-.563.655.655,0,0,0-.56-.2.935.935,0,0,0-.406.093.938.938,0,0,0-.342.285.736.736,0,0,0-.106.2,1.657,1.657,0,0,0-.067.234,1.954,1.954,0,0,0-.035.243q-.01.122-.01.224Zm5.5-1.645a1.825,1.825,0,0,0,.077.534,1.378,1.378,0,0,0,.221.442,1.082,1.082,0,0,0,.352.3.976.976,0,0,0,.47.112,1.074,1.074,0,0,0,.515-.118,1.012,1.012,0,0,0,.362-.323,1.392,1.392,0,0,0,.2-.477,2.161,2.161,0,0,0,.051-.586,1.628,1.628,0,0,0-.086-.554,1.179,1.179,0,0,0-.24-.406,1.023,1.023,0,0,0-.358-.253,1.139,1.139,0,0,0-.448-.086,1.031,1.031,0,0,0-.48.109,1.008,1.008,0,0,0-.352.3,1.37,1.37,0,0,0-.215.448,2.054,2.054,0,0,0-.073.56m0,2.95H113.3v-4.62h.384v.582h.013a1.122,1.122,0,0,1,.215-.288,1.253,1.253,0,0,1,.288-.211,1.549,1.549,0,0,1,.323-.128,1.253,1.253,0,0,1,.327-.045,1.582,1.582,0,0,1,.685.134,1.274,1.274,0,0,1,.464.368,1.5,1.5,0,0,1,.266.553,2.716,2.716,0,0,1,.083.685,2.453,2.453,0,0,1-.09.665,1.649,1.649,0,0,1-.272.56,1.346,1.346,0,0,1-.461.384,1.407,1.407,0,0,1-.656.144,1.53,1.53,0,0,1-.675-.157,1.188,1.188,0,0,1-.509-.464Zm5.722-3.046a1.882,1.882,0,0,1-.493.134q-.249.032-.5.051a1.408,1.408,0,0,0-.688.2.569.569,0,0,0-.246.506.547.547,0,0,0,.061.266.56.56,0,0,0,.16.186.678.678,0,0,0,.23.109,1.023,1.023,0,0,0,.266.035,1.749,1.749,0,0,0,.448-.058,1.21,1.21,0,0,0,.387-.176.9.9,0,0,0,.272-.3.868.868,0,0,0,.1-.432Zm-.646-.192q.109-.013.259-.038a.977.977,0,0,0,.246-.07.2.2,0,0,0,.118-.15.943.943,0,0,0,.022-.2.653.653,0,0,0-.189-.483.88.88,0,0,0-.637-.189,1.762,1.762,0,0,0-.365.035.79.79,0,0,0-.291.122.668.668,0,0,0-.2.23.978.978,0,0,0-.106.362h-.39a1.181,1.181,0,0,1,.135-.5,1.017,1.017,0,0,1,.3-.339,1.234,1.234,0,0,1,.422-.192,2.06,2.06,0,0,1,.509-.061,1.958,1.958,0,0,1,.47.054,1.09,1.09,0,0,1,.384.173.8.8,0,0,1,.256.317,1.144,1.144,0,0,1,.093.486v1.8q0,.224.08.285t.323-.029v.3l-.131.038a.589.589,0,0,1-.17.026.762.762,0,0,1-.173-.019.3.3,0,0,1-.153-.061.372.372,0,0,1-.093-.115.477.477,0,0,1-.048-.147,1.1,1.1,0,0,1-.013-.17,1.667,1.667,0,0,1-.557.409,1.634,1.634,0,0,1-.678.141,1.519,1.519,0,0,1-.419-.058,1.016,1.016,0,0,1-.355-.179.89.89,0,0,1-.243-.3.913.913,0,0,1-.09-.419q0-.845,1.158-1Zm2.464-1.817a.958.958,0,0,1,.045-.208.734.734,0,0,1,.083-.17.594.594,0,0,1,.246-.2.488.488,0,0,1,.317-.029,1.006,1.006,0,0,1,.192.064l.208.093q.105.048.2.083a.548.548,0,0,0,.182.035.209.209,0,0,0,.2-.1.788.788,0,0,0,.083-.218h.243a.775.775,0,0,1-.022.125c-.011.041-.02.08-.029.118a.985.985,0,0,1-.179.269.385.385,0,0,1-.294.115.711.711,0,0,1-.253-.045q-.118-.045-.234-.1t-.227-.1a.59.59,0,0,0-.221-.045.235.235,0,0,0-.211.1.851.851,0,0,0-.1.218Zm.026,3.75h-.384v-3.315h.384v.461a2.433,2.433,0,0,1,.477-.4,1.1,1.1,0,0,1,.592-.154,1.511,1.511,0,0,1,.569.106.972.972,0,0,1,.442.368.826.826,0,0,1,.144.368,3.341,3.341,0,0,1,.022.394v2.169h-.384v-2.163a.987.987,0,0,0-.2-.672.842.842,0,0,0-.659-.224.938.938,0,0,0-.326.054,1.03,1.03,0,0,0-.265.144.966.966,0,0,0-.2.2.959.959,0,0,0-.128.243,1.219,1.219,0,0,0-.07.307q-.013.147-.013.32Zm3-3.673.71-.889h.493l-.877.889Zm.288.359h.384v3.315h-.384Zm3.623,1.574a1.886,1.886,0,0,1-.493.134q-.25.032-.5.051a1.409,1.409,0,0,0-.688.2.569.569,0,0,0-.246.506.549.549,0,0,0,.061.266.56.56,0,0,0,.16.186.679.679,0,0,0,.23.109,1.021,1.021,0,0,0,.265.035,1.751,1.751,0,0,0,.448-.058,1.21,1.21,0,0,0,.387-.176.9.9,0,0,0,.272-.3.869.869,0,0,0,.1-.432Zm-.646-.192q.109-.013.259-.038a.979.979,0,0,0,.247-.07.2.2,0,0,0,.118-.15.944.944,0,0,0,.023-.2.654.654,0,0,0-.189-.483.881.881,0,0,0-.637-.189,1.765,1.765,0,0,0-.365.035.792.792,0,0,0-.291.122.668.668,0,0,0-.2.23.982.982,0,0,0-.106.362h-.39a1.181,1.181,0,0,1,.134-.5,1.019,1.019,0,0,1,.3-.339,1.237,1.237,0,0,1,.422-.192,2.057,2.057,0,0,1,.509-.061,1.957,1.957,0,0,1,.47.054,1.09,1.09,0,0,1,.384.173.8.8,0,0,1,.256.317,1.144,1.144,0,0,1,.093.486v1.8q0,.224.08.285t.323-.029v.3l-.131.038a.591.591,0,0,1-.17.026.762.762,0,0,1-.173-.019.3.3,0,0,1-.154-.061.374.374,0,0,1-.093-.115.477.477,0,0,1-.048-.147,1.078,1.078,0,0,1-.013-.17,1.667,1.667,0,0,1-.557.409,1.635,1.635,0,0,1-.678.141,1.517,1.517,0,0,1-.419-.058,1.015,1.015,0,0,1-.355-.179.89.89,0,0,1-.243-.3.912.912,0,0,1-.09-.419q0-.845,1.158-1Zm6.374.262a1.827,1.827,0,0,0-.077-.534,1.387,1.387,0,0,0-.221-.441,1.084,1.084,0,0,0-.352-.3.977.977,0,0,0-.471-.112,1.073,1.073,0,0,0-.518.118,1.022,1.022,0,0,0-.358.323,1.392,1.392,0,0,0-.2.477,2.161,2.161,0,0,0-.051.586,1.628,1.628,0,0,0,.086.554,1.182,1.182,0,0,0,.24.406,1.025,1.025,0,0,0,.358.253,1.139,1.139,0,0,0,.448.086,1.031,1.031,0,0,0,.48-.109,1.008,1.008,0,0,0,.352-.3,1.362,1.362,0,0,0,.215-.448,2.051,2.051,0,0,0,.073-.56m0-2.937h.384v4.608h-.384v-.582h-.013a1.042,1.042,0,0,1-.214.291,1.31,1.31,0,0,1-.288.208,1.561,1.561,0,0,1-.323.128,1.251,1.251,0,0,1-.327.045,1.579,1.579,0,0,1-.685-.135,1.271,1.271,0,0,1-.464-.368,1.5,1.5,0,0,1-.266-.553,2.716,2.716,0,0,1-.083-.685,2.455,2.455,0,0,1,.09-.666,1.654,1.654,0,0,1,.272-.56,1.347,1.347,0,0,1,.461-.384,1.41,1.41,0,0,1,.656-.144,1.529,1.529,0,0,1,.675.157,1.186,1.186,0,0,1,.509.464Zm3.821,2.72a1.527,1.527,0,0,0-.067-.458,1.07,1.07,0,0,0-.2-.371.943.943,0,0,0-.33-.25,1.061,1.061,0,0,0-.454-.093,1.01,1.01,0,0,0-.451.1,1.036,1.036,0,0,0-.333.256,1.287,1.287,0,0,0-.221.371,1.726,1.726,0,0,0-.109.448Zm-2.163.32a1.8,1.8,0,0,0,.07.509,1.227,1.227,0,0,0,.208.416,1.006,1.006,0,0,0,.348.282,1.076,1.076,0,0,0,.487.106,1.06,1.06,0,0,0,.646-.2.956.956,0,0,0,.358-.563h.429a2.056,2.056,0,0,1-.186.438,1.354,1.354,0,0,1-.288.352,1.243,1.243,0,0,1-.409.234,1.661,1.661,0,0,1-.55.083,1.6,1.6,0,0,1-.685-.135,1.287,1.287,0,0,1-.474-.368,1.551,1.551,0,0,1-.275-.55,2.493,2.493,0,0,1-.089-.681,2.168,2.168,0,0,1,.106-.685,1.749,1.749,0,0,1,.3-.56,1.4,1.4,0,0,1,.477-.378,1.441,1.441,0,0,1,.64-.138,1.322,1.322,0,0,1,1.075.47,2.067,2.067,0,0,1,.384,1.366Zm5.158-3.04h.384v4.608H140.7Zm3.6,2.867a1.886,1.886,0,0,1-.493.134q-.25.032-.5.051a1.408,1.408,0,0,0-.688.2.568.568,0,0,0-.247.506.549.549,0,0,0,.061.266.561.561,0,0,0,.16.186.677.677,0,0,0,.23.109,1.02,1.02,0,0,0,.265.035,1.751,1.751,0,0,0,.448-.058,1.212,1.212,0,0,0,.387-.176.9.9,0,0,0,.272-.3.87.87,0,0,0,.1-.432Zm-.646-.192q.109-.013.259-.038a.975.975,0,0,0,.246-.07.2.2,0,0,0,.118-.15.946.946,0,0,0,.023-.2.653.653,0,0,0-.189-.483.88.88,0,0,0-.637-.189,1.764,1.764,0,0,0-.365.035.8.8,0,0,0-.291.122.674.674,0,0,0-.2.23.978.978,0,0,0-.105.362h-.39a1.186,1.186,0,0,1,.134-.5,1.022,1.022,0,0,1,.3-.339,1.235,1.235,0,0,1,.422-.192,2.056,2.056,0,0,1,.509-.061,1.959,1.959,0,0,1,.471.054,1.088,1.088,0,0,1,.384.173.8.8,0,0,1,.256.317,1.147,1.147,0,0,1,.093.486v1.8q0,.224.08.285c.053.04.161.031.323-.029v.3l-.131.038a.589.589,0,0,1-.17.026.761.761,0,0,1-.173-.019.3.3,0,0,1-.154-.061.374.374,0,0,1-.093-.115.477.477,0,0,1-.048-.147,1.055,1.055,0,0,1-.013-.17,1.667,1.667,0,0,1-.557.409,1.634,1.634,0,0,1-.678.141,1.516,1.516,0,0,1-.419-.058,1.019,1.019,0,0,1-.355-.179.893.893,0,0,1-.243-.3.915.915,0,0,1-.089-.419q0-.845,1.158-1Zm2.33.9a.975.975,0,0,0,.323.6,1.1,1.1,0,0,0,.669.176,1.155,1.155,0,0,0,.365-.051A.731.731,0,0,0,147.6-75a.6.6,0,0,0,.15-.2.535.535,0,0,0,.051-.23.424.424,0,0,0-.157-.362,1.186,1.186,0,0,0-.394-.186,5.054,5.054,0,0,0-.512-.115,2.5,2.5,0,0,1-.512-.144,1.026,1.026,0,0,1-.394-.275.744.744,0,0,1-.157-.506.864.864,0,0,1,.3-.681,1.267,1.267,0,0,1,.861-.266,1.47,1.47,0,0,1,.874.24,1.1,1.1,0,0,1,.406.8h-.39a.718.718,0,0,0-.291-.541,1.084,1.084,0,0,0-.6-.157.861.861,0,0,0-.557.157.507.507,0,0,0-.192.413.4.4,0,0,0,.157.342,1.278,1.278,0,0,0,.394.192q.237.074.512.131a2.521,2.521,0,0,1,.512.163,1.117,1.117,0,0,1,.394.285.733.733,0,0,1,.157.5.841.841,0,0,1-.1.419.892.892,0,0,1-.282.3,1.307,1.307,0,0,1-.426.182,2.246,2.246,0,0,1-.541.061,1.462,1.462,0,0,1-.522-.086,1.134,1.134,0,0,1-.387-.24,1.111,1.111,0,0,1-.25-.359,1.263,1.263,0,0,1-.1-.442Z" transform="translate(-93.755 94.496)" fill="#fff"/>
</svg>
