<svg xmlns="http://www.w3.org/2000/svg" xmlns:xlink="http://www.w3.org/1999/xlink" width="400" height="400" viewBox="0 0 400 400">
  <defs>
    <clipPath id="clip-path">
      <rect id="Rect치ngulo_362" data-name="Rect치ngulo 362" width="188.215" height="300.158" fill="#ce311e"/>
    </clipPath>
  </defs>
  <g id="Grupo_2459" data-name="Grupo 2459" transform="translate(-133 -52)">
    <rect id="Rect치ngulo_361" data-name="Rect치ngulo 361" width="400" height="400" transform="translate(133 52)" fill="#fff"/>
    <g id="Grupo_2457" data-name="Grupo 2457" transform="translate(239 102)">
      <g id="Grupo_2456" data-name="Grupo 2456" transform="translate(0 0)" clip-path="url(#clip-path)">
        <path id="Trazado_5002" data-name="Trazado 5002" d="M0,300.159H80.263V168.436a162.775,162.775,0,0,1,3.971-36.469,80.4,80.4,0,0,1,13.292-29.961,64.5,64.5,0,0,1,24.6-20.066,85.378,85.378,0,0,1,37.3-7.347,143.985,143.985,0,0,1,15.278.849q7.915.86,13.515,1.985V2.824A55.236,55.236,0,0,0,170.686,0a96.678,96.678,0,0,0-29.1,4.512,106.545,106.545,0,0,0-26.85,12.7A100.266,100.266,0,0,0,92.7,36.989,98.68,98.68,0,0,0,77.428,62.162H76.3V7.888H0Z" transform="translate(0 0.004)" fill="#ce311e"/>
      </g>
    </g>
  </g>
</svg>
